<?xml version="1.0" encoding="UTF-8"?>
<svg version="1.1" xmlns="http://www.w3.org/2000/svg" width="500" height="500">
<path d="M0 0 C1.96030151 -0.00084595 1.96030151 -0.00084595 3.96020508 -0.00170898 C13.57740054 0.10772003 22.05195892 1.15219368 31.125 4.375 C34.52164072 5.50721357 36.63615088 5.31322984 40.1875 5 C41.35539062 4.90074219 42.52328125 4.80148438 43.7265625 4.69921875 C46.51016964 4.43365623 49.28469647 4.13088612 52.0625 3.8125 C68.36503822 2.21882239 86.06988029 3.45551601 101.125 10.375 C101.7344043 10.65504883 102.34380859 10.93509766 102.97167969 11.22363281 C119.17482063 18.76525907 132.72257244 28.45698532 144.125 42.375 C144.94613281 43.32375 145.76726562 44.2725 146.61328125 45.25 C158.77852024 59.64280027 166.41157744 76.57141815 172.40820312 94.30737305 C173.11343742 96.34164732 173.87714872 98.34458371 174.65625 100.3515625 C182.26357067 120.5213629 184.56109441 142.95095883 185.125 164.375 C185.15223145 165.28459473 185.17946289 166.19418945 185.20751953 167.13134766 C185.99539173 197.39257749 185.06450592 233.93259473 172.5625 262.11328125 C171.04316273 265.56069054 170.09060168 268.92263428 169.125 272.5625 C162.09352035 297.36791961 151.22247827 321.46558112 137.13671875 343.0703125 C135.82614477 346.05578992 135.96488436 347.34048264 137.125 350.375 C145.49470117 360.09738015 158.29641746 368.19129851 171.20654297 369.60253906 C193.0034273 371.12225167 208.6442567 361.99700511 224.81640625 348.0546875 C226.34826466 346.68265381 227.87171166 345.30111232 229.3828125 343.90625 C232.11661798 341.50344339 233.9357896 341.19604738 237.5 341.125 C238.27085937 341.09921875 239.04171875 341.0734375 239.8359375 341.046875 C242.93613556 341.49127199 244.07345668 341.96087968 246.125 344.375 C246.77179596 347.41912428 246.7413772 350.39771588 246.6875 353.5 C246.67509277 354.39509277 246.66268555 355.29018555 246.64990234 356.21240234 C246.05975811 374.0271843 238.30183905 392.88120525 225.83203125 405.7890625 C223.31051494 408.13170694 220.77618067 410.44111726 218.14453125 412.66015625 C216.82291925 413.78237611 215.52683283 414.93554659 214.26171875 416.12109375 C205.10810219 424.63035635 194.2008906 429.75429117 182.43310547 433.61474609 C180.86382968 434.13164104 179.30039558 434.66654389 177.74267578 435.21728516 C151.52949114 444.32529968 121.90158934 443.29651862 96.125 433.375 C95.30547852 433.06014648 94.48595703 432.74529297 93.64160156 432.42089844 C87.70243255 430.07629498 81.96029202 427.50786937 76.5078125 424.16796875 C73.15432121 422.39054092 71.79161524 421.67124643 68.125 422.375 C65.2847422 423.80401148 65.2847422 423.80401148 62.375 425.8125 C55.81777916 430.05068038 49.02376597 433.68724661 42.1015625 437.2890625 C38.98145584 438.91256821 35.92486447 440.6225382 32.875 442.375 C-15.48721211 468.6431658 -73.92016045 482.09960961 -127.875 467.375 C-132.6107582 465.91681771 -137.20062188 464.13296146 -141.77685547 462.23876953 C-144.03094887 461.31079857 -146.29771778 460.41899431 -148.56640625 459.52734375 C-171.93883897 450.19435663 -190.17706225 436.07293775 -207.875 418.375 C-208.47441406 417.83359375 -209.07382813 417.2921875 -209.69140625 416.734375 C-217.01388871 409.98524128 -222.33928483 401.58374893 -227.875 393.375 C-228.57238281 392.34375 -229.26976562 391.3125 -229.98828125 390.25 C-245.0575123 367.26190474 -253.76337344 337.79957286 -254.18359375 310.31640625 C-254.198992 309.34758011 -254.21439026 308.37875397 -254.23025513 307.38056946 C-254.52835449 284.27878965 -253.81509467 262.80351889 -247.875 240.375 C-247.70575012 239.73300659 -247.53650024 239.09101318 -247.36212158 238.42956543 C-243.00008405 221.98924702 -237.62016847 205.9973248 -230.875 190.375 C-230.215 190.375 -229.555 190.375 -228.875 190.375 C-228.545 189.22 -228.215 188.065 -227.875 186.875 C-222.27755881 170.18681486 -212.35308456 152.80784953 -201.72265625 138.859375 C-199.87338678 136.37283086 -198.24578112 133.82761575 -196.625 131.1875 C-190.29326235 121.08859579 -183.01783657 111.38553401 -174.90893555 102.64550781 C-172.79846171 100.28955935 -170.84339222 97.8497849 -168.87890625 95.37109375 C-164.09253443 89.49959611 -158.92196985 84.11701217 -153.54638672 78.78564453 C-152.00120622 77.25119784 -150.46703991 75.70631998 -148.93359375 74.16015625 C-142.57009632 67.78808208 -135.93394094 61.98054518 -128.875 56.375 C-127.75432811 55.44060682 -126.63751365 54.50153432 -125.52734375 53.5546875 C-120.33934117 49.15048387 -115.11173932 44.96734927 -109.48046875 41.14453125 C-107.61165034 39.87530375 -105.76209221 38.57753892 -103.92578125 37.26171875 C-73.50985447 15.60019156 -37.71156332 -0.04133707 0 0 Z M108.125 94.375 C98.97790296 111.9385088 93.07416594 128.94230665 89.125 148.375 C88.94275879 149.27089844 88.76051758 150.16679687 88.57275391 151.08984375 C82.70513655 181.77660676 84.37312283 216.68483118 90.69677734 247.13598633 C91.26013808 250.0815857 91.54139236 253.00995722 91.75 256 C91.82476562 257.02351562 91.89953125 258.04703125 91.9765625 259.1015625 C92.02554687 259.85179687 92.07453125 260.60203125 92.125 261.375 C95.06164773 257.9860578 96.85531323 255.0717633 98.2734375 250.82421875 C98.63606689 249.74575684 98.99869629 248.66729492 99.37231445 247.55615234 C99.74445068 246.40324707 100.11658691 245.2503418 100.5 244.0625 C100.8921167 242.86061035 101.2842334 241.6587207 101.68823242 240.42041016 C110.05222016 214.33546993 115.62533843 187.82435701 116.125 160.375 C116.16753906 158.66376953 116.16753906 158.66376953 116.2109375 156.91796875 C116.25102006 153.7314049 116.20970714 150.56072517 116.125 147.375 C116.10711426 146.68647949 116.08922852 145.99795898 116.07080078 145.28857422 C115.55904469 127.98972411 112.68770922 111.27891821 109.125 94.375 C108.795 94.375 108.465 94.375 108.125 94.375 Z M-55.8125 202.375 C-59.16284626 205.04780808 -62.56083806 207.59165274 -66.0625 210.0625 C-73.01723958 215.09835485 -79.48226143 220.65194024 -85.875 226.375 C-86.77476562 227.17679688 -87.67453125 227.97859375 -88.6015625 228.8046875 C-106.59671595 245.77154646 -117.6612493 269.25106963 -119.078125 293.91015625 C-119.3340371 313.16754197 -114.38261703 333.90255318 -100.875 348.375 C-100.215 348.375 -99.555 348.375 -98.875 348.375 C-98.545 349.365 -98.215 350.355 -97.875 351.375 C-78.56756789 368.72215041 -57.38310336 373.36392474 -31.81787109 372.55859375 C-19.17043895 371.76957193 -6.82135116 367.3462666 5.125 363.375 C5.125 359.21294157 5.02895073 358.7603542 2.66796875 355.71484375 C1.87338257 354.66453979 1.87338257 354.66453979 1.06274414 353.59301758 C0.19637329 352.46416138 0.19637329 352.46416138 -0.6875 351.3125 C-30.32945316 311.23761133 -45.92663631 262.4761171 -49 213 C-49.08674673 211.66663451 -49.17398442 210.33330087 -49.26171875 209 C-49.47093981 205.79194369 -49.67530149 202.58366069 -49.875 199.375 C-52.68738396 199.375 -53.6384123 200.61371376 -55.8125 202.375 Z " fill="#688061" transform="translate(253.875,13.625)"/>
<path d="M0 0 C1.38150378 0.01006974 2.76301484 0.0191884 4.14453125 0.02734375 C7.47154732 0.0506096 10.79817285 0.08329436 14.125 0.125 C14.125 0.455 14.125 0.785 14.125 1.125 C7.855 1.455 1.585 1.785 -4.875 2.125 C-3.4828125 4.22875 -3.4828125 4.22875 -2.0625 6.375 C4.3689525 17.23092691 6.22689663 30.78726383 3.4453125 43.14453125 C2.625 45.625 2.625 45.625 1.125 49.125 C2.40375 49.33125 3.6825 49.5375 5 49.75 C13.22784475 51.57697025 19.93652159 56.58794037 26.125 62.125 C23.37330617 66.45184568 20.37159703 70.30342876 16.875 74.0625 C16.38684814 74.58972656 15.89869629 75.11695312 15.39575195 75.66015625 C11.53188137 79.78500478 7.46270853 83.50271215 3.125 87.125 C1.6709375 88.41083984 1.6709375 88.41083984 0.1875 89.72265625 C-17.35532885 105.20208322 -36.91233955 118.27402936 -56.20166016 131.45483398 C-68.49031425 139.85626076 -80.4885303 148.52214513 -91.875 158.125 C-92.96213257 159.02486888 -94.0493777 159.92460179 -95.13671875 160.82421875 C-107.89056592 171.46686032 -119.6987942 182.96807721 -129.875 196.125 C-131.03515625 197.54232422 -131.03515625 197.54232422 -132.21875 198.98828125 C-154.45334138 226.67597652 -167.80640886 258.26816078 -164.875 294.125 C-162.55413059 312.80628382 -152.61280701 329.16737835 -138.36328125 341.2265625 C-124.34267688 351.92360131 -105.89163828 361.54921447 -87.875 361.125 C-84.52396852 361.125 -83.53759638 361.7463735 -80.6875 363.375 C-59.96870638 374.1158179 -33.7450977 373.45254249 -11.875 367.125 C-11.11944824 366.91117676 -10.36389648 366.69735352 -9.58544922 366.47705078 C-1.06423546 364.50102223 -1.06423546 364.50102223 6.125 360.125 C17.85236486 372.75743243 17.85236486 372.75743243 21.75 377.3125 C28.39918844 384.95746062 35.62413933 391.75430763 43.58203125 398.01953125 C46.26742019 400.24291779 48.69611792 402.62634752 51.125 405.125 C28.33823557 417.99530213 5.17427265 429.60386381 -19.5559082 438.2956543 C-21.19357248 438.88131021 -22.82440638 439.48623711 -24.44995117 440.10473633 C-67.73277623 456.45274748 -118.38085458 457.84463752 -160.93823242 438.98852539 C-177.91485792 431.14562052 -192.38870468 419.95530957 -205.875 407.125 C-206.55949219 406.50496094 -207.24398437 405.88492187 -207.94921875 405.24609375 C-224.28522582 389.9375085 -239.78809226 366.38572321 -246.875 345.125 C-247.865 347.105 -247.865 347.105 -248.875 349.125 C-249.69223775 345.60524931 -250.50292922 342.08402137 -251.3125 338.5625 C-251.54259766 337.57185547 -251.77269531 336.58121094 -252.00976562 335.56054688 C-252.23212891 334.59052734 -252.45449219 333.62050781 -252.68359375 332.62109375 C-252.98994751 331.29356079 -252.98994751 331.29356079 -253.30249023 329.93920898 C-254.6554832 323.28848406 -255.08017889 316.8299248 -255.18359375 310.06640625 C-255.198992 309.09758011 -255.21439026 308.12875397 -255.23025513 307.13056946 C-255.52835449 284.02878965 -254.81509467 262.55351889 -248.875 240.125 C-248.70575012 239.48300659 -248.53650024 238.84101318 -248.36212158 238.17956543 C-244.00008405 221.73924702 -238.62016847 205.7473248 -231.875 190.125 C-231.215 190.125 -230.555 190.125 -229.875 190.125 C-229.545 188.97 -229.215 187.815 -228.875 186.625 C-223.27755881 169.93681486 -213.35308456 152.55784953 -202.72265625 138.609375 C-200.87338678 136.12283086 -199.24578112 133.57761575 -197.625 130.9375 C-191.29326235 120.83859579 -184.01783657 111.13553401 -175.90893555 102.39550781 C-173.79846171 100.03955935 -171.84339222 97.5997849 -169.87890625 95.12109375 C-165.09253443 89.24959611 -159.92196985 83.86701217 -154.54638672 78.53564453 C-153.00120622 77.00119784 -151.46703991 75.45631998 -149.93359375 73.91015625 C-143.57009632 67.53808208 -136.93394094 61.73054518 -129.875 56.125 C-128.75432811 55.19060682 -127.63751365 54.25153432 -126.52734375 53.3046875 C-121.33934117 48.90048387 -116.11173932 44.71734927 -110.48046875 40.89453125 C-108.61165034 39.62530375 -106.76209221 38.32753892 -104.92578125 37.01171875 C-74.13319867 15.08194591 -38.16990624 -0.48695661 0 0 Z " fill="#004AAC" transform="translate(254.875,13.875)"/>
<path d="M0 0 C30.9240997 25.85703842 43.91602199 71.1578087 47.68383789 109.88745117 C52.05550261 164.09609365 23.27589594 222.45320184 -9.31616211 264.88745117 C-17.1027582 257.5057041 -21.9861823 248.48955362 -25.81616211 238.57495117 C-26.07131592 237.93001709 -26.32646973 237.28508301 -26.58935547 236.62060547 C-28.81469614 230.51322089 -29.47203287 225.11017852 -26.88256836 219.08276367 C-26.22490562 217.72096741 -25.55623675 216.36445041 -24.87866211 215.01245117 C-3.36193006 169.12304159 11.99858017 99.79339876 -5.75366211 50.26245117 C-7.35782422 46.31292994 -9.05403643 43.66345616 -12.31616211 40.88745117 C-14.77289102 40.22059179 -14.77289102 40.22059179 -17.31616211 40.88745117 C-21.03015323 43.51544489 -23.58482204 46.30301282 -26.19116211 50.01245117 C-26.87694336 50.98311523 -27.56272461 51.9537793 -28.26928711 52.95385742 C-28.94475586 53.92194336 -29.62022461 54.8900293 -30.31616211 55.88745117 C-30.92975586 56.74209961 -31.54334961 57.59674805 -32.17553711 58.47729492 C-33.9236139 60.92537592 -35.62820062 63.39760775 -37.31616211 65.88745117 C-37.80729492 66.59514648 -38.29842773 67.3028418 -38.80444336 68.03198242 C-56.09764157 94.64765946 -60.53882475 129.14198154 -60.56616211 160.13745117 C-60.56683685 160.83409882 -60.5675116 161.53074646 -60.56820679 162.24850464 C-60.54831141 175.30303017 -59.55800266 188.01820816 -57.31616211 200.88745117 C-57.16050781 201.80155762 -57.00485352 202.71566406 -56.84448242 203.6574707 C-50.93509775 237.05551999 -38.41431315 272.02803479 -17.31616211 298.88745117 C-16.58010742 299.86198242 -15.84405273 300.83651367 -15.08569336 301.84057617 C-3.28918863 316.85081057 13.36953043 329.1791719 32.68383789 331.88745117 C49.87746196 333.66297821 65.59729132 327.84084328 79.55883789 317.82495117 C81.06271711 316.45376718 82.52561213 315.03699884 83.95727539 313.59057617 C87.6310462 309.94838506 91.495447 306.53672487 95.35571289 303.09448242 C97.71519208 301.1092736 97.71519208 301.1092736 98.68383789 298.88745117 C100.09952853 298.80577671 101.51660594 298.74795419 102.93383789 298.69995117 C103.72274414 298.66514648 104.51165039 298.6303418 105.32446289 298.59448242 C108.48179064 298.98653471 109.60919991 299.43052035 111.68383789 301.88745117 C112.32979958 304.93183726 112.30021725 307.91004297 112.24633789 311.01245117 C112.23393066 311.90754395 112.22152344 312.80263672 112.20874023 313.72485352 C111.618596 331.53963548 103.86067694 350.39365642 91.39086914 363.30151367 C88.86935283 365.64415811 86.33501856 367.95356843 83.70336914 370.17260742 C82.38175714 371.29482728 81.08567072 372.44799776 79.82055664 373.63354492 C71.47300724 381.39348215 60.6650515 387.71216049 49.68383789 390.88745117 C47.34008789 390.51245117 47.34008789 390.51245117 45.68383789 389.88745117 C46.74860352 389.48655273 47.81336914 389.0856543 48.91040039 388.67260742 C58.99590374 384.76142565 67.82206425 380.08086191 76.68383789 373.88745117 C75.30711914 374.30317383 75.30711914 374.30317383 73.90258789 374.72729492 C72.67540039 375.08952148 71.44821289 375.45174805 70.18383789 375.82495117 C68.97727539 376.18459961 67.77071289 376.54424805 66.52758789 376.91479492 C36.46258922 384.52270617 4.03344005 374.30128474 -22.31616211 359.88745117 C-23.36030273 359.3228418 -24.40444336 358.75823242 -25.48022461 358.17651367 C-47.79257967 345.63685238 -67.63835168 328.04866422 -83.31616211 307.88745117 C-84.03288086 306.97608398 -84.74959961 306.0647168 -85.48803711 305.12573242 C-118.25727504 262.5373434 -135.55345778 209.79503743 -142.31616211 156.88745117 C-142.50823242 155.78916992 -142.70030273 154.69088867 -142.89819336 153.55932617 C-141.91199186 149.03206559 -138.33243207 147.29860615 -134.62866211 144.82495117 C-133.81848633 144.26477295 -133.00831055 143.70459473 -132.17358398 143.12744141 C-129.5736151 141.35001806 -126.95090935 139.61284366 -124.31616211 137.88745117 C-123.49293457 137.34636719 -122.66970703 136.8052832 -121.8215332 136.24780273 C-110.33153241 128.77007467 -98.46609575 122.10479044 -86.28491211 115.81933594 C-68.61703055 106.57748464 -57.94708752 95.29538919 -51.39428711 76.37963867 C-43.51500712 50.85762305 -50.37117764 25.8963841 -62.37768555 2.84985352 C-65.23023941 -2.50561185 -68.08423489 -7.75859957 -72.05444336 -12.37817383 C-74.31616211 -15.11254883 -74.31616211 -15.11254883 -74.31616211 -17.11254883 C-47.45547286 -22.42773822 -21.67332643 -17.44481382 0 0 Z " fill="#0049AC" transform="translate(388.316162109375,56.112548828125)"/>
<path d="M0 0 C25.98697932 -0.75653506 25.98697932 -0.75653506 36.1953125 3.171875 C41.45496294 4.72486371 46.65240043 3.75414866 52 3 C69.98356656 0.84859173 89.27114179 1.31124901 106 9 C106.6094043 9.28004883 107.21880859 9.56009766 107.84667969 9.84863281 C124.04982063 17.39025907 137.59757244 27.08198532 149 41 C149.82113281 41.94875 150.64226562 42.8975 151.48828125 43.875 C163.65352024 58.26780027 171.28657744 75.19641815 177.28320312 92.93237305 C177.98843742 94.96664732 178.75214872 96.96958371 179.53125 98.9765625 C187.13857067 119.1463629 189.43609441 141.57595883 190 163 C190.02723145 163.90959473 190.05446289 164.81918945 190.08251953 165.75634766 C190.87039173 196.01757749 189.93950592 232.55759473 177.4375 260.73828125 C175.91816273 264.18569054 174.96560168 267.54763428 174 271.1875 C166.96852035 295.99291961 156.09747827 320.09058112 142.01171875 341.6953125 C140.70114477 344.68078992 140.83988436 345.96548264 142 349 C150.36970117 358.72238015 163.17141746 366.81629851 176.08154297 368.22753906 C197.96680855 369.75341375 213.47537851 360.53514393 229.76171875 346.64453125 C231.86065234 344.78283976 233.94227103 342.9070367 236 341 C236.66 341.33 237.32 341.66 238 342 C237.19175781 342.73605469 236.38351562 343.47210938 235.55078125 344.23046875 C234.47129779 345.21608409 233.39187388 346.20176465 232.3125 347.1875 C231.78205078 347.67025391 231.25160156 348.15300781 230.70507812 348.65039062 C228.20731166 350.933625 225.77086026 353.23257512 223.39453125 355.64453125 C216.67352108 362.25590015 208.68558377 366.52576649 200 370 C199.07574219 370.39445312 198.15148437 370.78890625 197.19921875 371.1953125 C183.82482974 376.37132773 169.55516063 375.03108339 156.5 369.5234375 C148.80922558 365.98773546 142.3558877 361.5527972 136 356 C135.38898438 355.52046875 134.77796875 355.0409375 134.1484375 354.546875 C98.94310178 326.57551237 84.23080239 270.29391871 78.87353516 227.82836914 C73.94719757 182.67027464 80.55596518 134.21389555 108 97 C108.4345752 96.40912598 108.86915039 95.81825195 109.31689453 95.20947266 C110.6387125 93.42350487 111.97222362 91.64714876 113.3125 89.875 C113.92496582 89.05817749 113.92496582 89.05817749 114.54980469 88.22485352 C117.35209853 84.58152613 119.83638688 81.56937187 124.375 80.375 C128.73760217 81.4137148 130.64372386 84.32889575 133 88 C151.02434424 121.14543839 140.15349642 181.21800573 130.08007812 215.43847656 C129.40418177 217.63154451 128.70351518 219.81564005 128 222 C127.56880859 223.37913574 127.56880859 223.37913574 127.12890625 224.78613281 C123.54932426 236.20440524 119.81285581 247.40007229 114.43823242 258.1171875 C111.42346588 264.36081379 111.18986772 268.99575945 113.03125 275.82421875 C113.50299483 277.11862037 113.99325616 278.40639524 114.5 279.6875 C114.89614502 280.71472168 114.89614502 280.71472168 115.30029297 281.76269531 C118.7321043 290.2938187 123.224985 298.67665266 130 305 C138.14595429 293.17103446 145.65233991 281.11812731 152.59472656 268.54345703 C153.49114699 266.92099213 154.39353793 265.30180181 155.30371094 263.68701172 C166.60679217 243.60882175 175.13508805 221.96315684 182 200 C183.07098159 196.85637444 184.15098711 193.71613846 185.23828125 190.578125 C195.89557469 154.50728565 179.38886675 102.32932396 162.43286133 70.83959961 C158.84297967 64.44601497 154.63839173 58.68291506 150 53 C149.48953125 52.33742187 148.9790625 51.67484375 148.453125 50.9921875 C137.09441078 36.76188823 117.03294671 26.01716021 99.1328125 23.27734375 C89.38896109 22.41473346 79.90534599 22.50461312 70.3125 24.4375 C64.6808497 25.40329866 64.6808497 25.40329866 61.65234375 23.609375 C59.89414135 21.83312124 58.46539912 20.01724246 57 18 C56.34 17.67 55.68 17.34 55 17 C55.56589844 18.08539063 56.13179687 19.17078125 56.71484375 20.2890625 C57.45615759 21.7341553 58.19701918 23.17948017 58.9375 24.625 C59.31068359 25.33785156 59.68386719 26.05070312 60.06835938 26.78515625 C65.36077534 37.17927049 65.61576611 49.44673927 62.4375 60.625 C55.89883754 79.21932137 43.62471291 92.63189565 30 106.3125 C29.23769577 107.08045395 29.23769577 107.08045395 28.45999146 107.86392212 C21.64133055 114.70810721 14.56310853 120.97281474 7 127 C4.85877248 128.7943263 2.74399155 130.61675793 0.625 132.4375 C-5.14634571 137.35376781 -11.10714485 141.99453644 -17.14257812 146.58105469 C-23.80180793 151.66825811 -30.39214013 156.84637956 -37 162 C-37.63083496 162.49145508 -38.26166992 162.98291016 -38.91162109 163.48925781 C-74.68465894 190.85654642 -74.68465894 190.85654642 -106 223 C-106.6815918 223.82975342 -106.6815918 223.82975342 -107.37695312 224.67626953 C-122.8547714 243.7584414 -134.3978052 264.76595479 -132 290 C-129.08605552 309.05271389 -117.51544262 330.22273397 -102 342 C-101.01 342 -100.02 342 -99 342 C-97.3125 343.375 -97.3125 343.375 -96 345 C-96 345.66 -96 346.32 -96 347 C-95.34 347 -94.68 347 -94 347 C-92.81720962 348.14899637 -91.64072068 349.30549648 -90.50390625 350.5 C-88.29890273 352.69927623 -85.87813956 354.61975731 -83.453125 356.5703125 C-82 358 -82 358 -81 361 C-102.8417163 360.29542851 -125.6201325 349.4368705 -140.71875 333.59765625 C-156.56625672 315.55212205 -161.41077223 295.42253185 -160.21435547 271.95263672 C-157.09249861 228.95065859 -125.4727598 189.76221398 -94.0625 162.4453125 C-92.29202905 160.99908477 -90.50833782 159.5688696 -88.7109375 158.15625 C-86.26745217 156.21272853 -83.91979824 154.1887503 -81.57641602 152.12670898 C-73.71684111 145.26281818 -65.19624782 139.52278303 -56.54101562 133.71777344 C-52.22234871 130.79827493 -47.95459563 127.80666759 -43.6875 124.8125 C-42.84952881 124.2246875 -42.01155762 123.636875 -41.14819336 123.03125 C-23.02478839 110.30080233 -5.43099776 97.28994234 11.171875 82.60546875 C12.44147521 81.49049933 13.72374914 80.38986264 15.015625 79.30078125 C21.25970835 73.99807688 27.11969746 68.3040989 31 61 C23.74970811 55.10660631 16.02363132 50.6121038 7 48 C7.33 46.845 7.66 45.69 8 44.5 C10.92678221 31.12944818 9.59006226 17.1139729 2.8828125 5.14453125 C2.34285645 4.17491455 1.80290039 3.20529785 1.24658203 2.20629883 C0.62952393 1.11418091 0.62952393 1.11418091 0 0 Z M113 93 C103.85290296 110.5635088 97.94916594 127.56730665 94 147 C93.81775879 147.89589844 93.63551758 148.79179687 93.44775391 149.71484375 C87.58013655 180.40160676 89.24812283 215.30983118 95.57177734 245.76098633 C96.13513808 248.7065857 96.41639236 251.63495722 96.625 254.625 C96.69976562 255.64851562 96.77453125 256.67203125 96.8515625 257.7265625 C96.90054687 258.47679687 96.94953125 259.22703125 97 260 C99.93664773 256.6110578 101.73031323 253.6967633 103.1484375 249.44921875 C103.51106689 248.37075684 103.87369629 247.29229492 104.24731445 246.18115234 C104.61945068 245.02824707 104.99158691 243.8753418 105.375 242.6875 C105.7671167 241.48561035 106.1592334 240.2837207 106.56323242 239.04541016 C114.92722016 212.96046993 120.50033843 186.44935701 121 159 C121.04253906 157.28876953 121.04253906 157.28876953 121.0859375 155.54296875 C121.12602006 152.3564049 121.08470714 149.18572517 121 146 C120.98211426 145.31147949 120.96422852 144.62295898 120.94580078 143.91357422 C120.43404469 126.61472411 117.56270922 109.90391821 114 93 C113.67 93 113.34 93 113 93 Z " fill="#47707C" transform="translate(249,15)"/>
<path d="M0 0 C1.38150378 0.01006974 2.76301484 0.0191884 4.14453125 0.02734375 C7.47154732 0.0506096 10.79817285 0.08329436 14.125 0.125 C14.125 0.455 14.125 0.785 14.125 1.125 C7.855 1.455 1.585 1.785 -4.875 2.125 C-3.4828125 4.22875 -3.4828125 4.22875 -2.0625 6.375 C4.3689525 17.23092691 6.22689663 30.78726383 3.4453125 43.14453125 C2.625 45.625 2.625 45.625 1.125 49.125 C2.40375 49.33125 3.6825 49.5375 5 49.75 C13.22784475 51.57697025 19.93652159 56.58794037 26.125 62.125 C23.37330617 66.45184568 20.37159703 70.30342876 16.875 74.0625 C16.38684814 74.58972656 15.89869629 75.11695312 15.39575195 75.66015625 C11.53188137 79.78500478 7.46270853 83.50271215 3.125 87.125 C1.6709375 88.41083984 1.6709375 88.41083984 0.1875 89.72265625 C-17.35532885 105.20208322 -36.91233955 118.27402936 -56.20166016 131.45483398 C-68.49031425 139.85626076 -80.4885303 148.52214513 -91.875 158.125 C-92.96213257 159.02486888 -94.0493777 159.92460179 -95.13671875 160.82421875 C-107.89056592 171.46686032 -119.6987942 182.96807721 -129.875 196.125 C-131.03515625 197.54232422 -131.03515625 197.54232422 -132.21875 198.98828125 C-154.45334138 226.67597652 -167.80640886 258.26816078 -164.875 294.125 C-162.55413059 312.80628382 -152.61280701 329.16737835 -138.36328125 341.2265625 C-124.34267688 351.92360131 -105.89163828 361.54921447 -87.875 361.125 C-84.52396852 361.125 -83.53759638 361.7463735 -80.6875 363.375 C-68.87876735 369.49675831 -55.10939741 371.14571596 -42 371.6875 C-41.02546875 371.73068359 -40.0509375 371.77386719 -39.046875 371.81835938 C-36.65637198 371.92382274 -34.26577556 372.02594175 -31.875 372.125 C-31.875 372.455 -31.875 372.785 -31.875 373.125 C-105.59941556 375.39307235 -105.59941556 375.39307235 -123.875 369.125 C-124.48053711 368.91858887 -125.08607422 368.71217773 -125.70996094 368.49951172 C-150.42431054 359.96588441 -169.84335708 345.29999678 -181.62890625 321.59765625 C-187.84681472 307.24504046 -190.78724244 291.74482466 -189.875 276.125 C-189.84277344 275.01253906 -189.81054688 273.90007812 -189.77734375 272.75390625 C-188.63900863 247.03920776 -177.80104463 221.803791 -162.875 201.125 C-162.43671875 200.51688477 -161.9984375 199.90876953 -161.546875 199.28222656 C-151.13729192 184.91900375 -139.81093024 171.88819719 -127.3125 159.3125 C-126.82953461 158.82417694 -126.34656921 158.33585388 -125.84896851 157.83273315 C-119.95597957 151.89022225 -113.87770566 146.32771155 -107.33764648 141.09741211 C-104.74564118 139.02139239 -102.2409219 136.86786064 -99.74536133 134.67822266 C-91.78551276 127.70010121 -83.40434999 121.38422476 -74.875 115.125 C-73.35121325 114.0004731 -71.8277849 112.87546041 -70.3046875 111.75 C-63.85867263 106.99063669 -57.40426926 102.24284602 -50.9375 97.51171875 C-41.97880134 90.94914836 -33.09773432 84.31774301 -24.43310547 77.37011719 C-22.90161527 76.14626886 -21.35908606 74.93627566 -19.81640625 73.7265625 C-11.26238593 66.92512979 -2.34490459 59.26378539 0.125 48.125 C-29.81905134 44.20250439 -57.66062087 47.03740954 -85.875 58.125 C-86.52114258 58.37588379 -87.16728516 58.62676758 -87.83300781 58.88525391 C-105.9235339 66.02142034 -122.60097121 76.15191684 -137.875 88.125 C-138.79539062 88.83398438 -139.71578125 89.54296875 -140.6640625 90.2734375 C-145.82679946 94.31731505 -150.72288911 98.61144942 -155.5625 103.03515625 C-157.52485514 104.80856841 -159.52161409 106.50650245 -161.5625 108.1875 C-164.70511902 110.86129008 -167.35604601 113.81922652 -170.01953125 116.96484375 C-171.25466556 118.40280012 -172.52350174 119.81248982 -173.82421875 121.19140625 C-201.87114644 151.00098743 -221.20309509 189.65314007 -234.19580078 228.12695312 C-234.8542713 230.06402097 -235.53200916 231.99328119 -236.21484375 233.921875 C-239.21341187 242.562126 -241.46137968 251.22826336 -243.43408203 260.14404297 C-244.0784405 263.03901785 -244.76036804 265.92504093 -245.4375 268.8125 C-245.91749182 270.91647859 -246.39656159 273.02066763 -246.875 275.125 C-247.11250977 276.14907959 -247.35001953 277.17315918 -247.59472656 278.22827148 C-249.62604795 287.27928241 -250.94443618 296.30438512 -252.0625 305.5 C-252.2409761 306.92975756 -252.42001008 308.3594456 -252.59960938 309.7890625 C-253.03113883 313.23360185 -253.4552338 316.67900486 -253.875 320.125 C-254.205 320.125 -254.535 320.125 -254.875 320.125 C-255.54235995 292.80088787 -255.91671868 266.71301404 -248.875 240.125 C-248.70575012 239.48300659 -248.53650024 238.84101318 -248.36212158 238.17956543 C-244.00008405 221.73924702 -238.62016847 205.7473248 -231.875 190.125 C-231.215 190.125 -230.555 190.125 -229.875 190.125 C-229.545 188.97 -229.215 187.815 -228.875 186.625 C-223.27755881 169.93681486 -213.35308456 152.55784953 -202.72265625 138.609375 C-200.87338678 136.12283086 -199.24578112 133.57761575 -197.625 130.9375 C-191.29326235 120.83859579 -184.01783657 111.13553401 -175.90893555 102.39550781 C-173.79846171 100.03955935 -171.84339222 97.5997849 -169.87890625 95.12109375 C-165.09253443 89.24959611 -159.92196985 83.86701217 -154.54638672 78.53564453 C-153.00120622 77.00119784 -151.46703991 75.45631998 -149.93359375 73.91015625 C-143.57009632 67.53808208 -136.93394094 61.73054518 -129.875 56.125 C-128.75432811 55.19060682 -127.63751365 54.25153432 -126.52734375 53.3046875 C-121.33934117 48.90048387 -116.11173932 44.71734927 -110.48046875 40.89453125 C-108.61165034 39.62530375 -106.76209221 38.32753892 -104.92578125 37.01171875 C-74.13319867 15.08194591 -38.16990624 -0.48695661 0 0 Z " fill="#1A579B" transform="translate(254.875,13.875)"/>
<path d="M0 0 C15.19004899 6.69044854 24.13638742 27.4333089 30 42 C37.96187287 63.48341339 40.69774808 85.70703687 31.609375 107.3046875 C28.72223348 113.39807566 25.39205356 118.88493025 21 124 C20.48566406 124.63164062 19.97132813 125.26328125 19.44140625 125.9140625 C11.04397577 135.30272642 -1.35750035 140.65504591 -12.375 146.375 C-32.87343559 157.05911928 -52.55399952 170.27686226 -69.21875 186.34375 C-71.61753804 188.63472734 -74.07588877 190.75672447 -76.625 192.875 C-81.64267702 197.27126416 -85.51309112 202.53004759 -89.51953125 207.828125 C-91.50152277 210.42790994 -93.61528642 212.75425574 -96 215 C-99.07985051 210.78068738 -99.52926377 207.01410397 -99.6875 201.9375 C-99.72093506 201.19250244 -99.75437012 200.44750488 -99.78881836 199.67993164 C-100.04616679 193.45477329 -100.108027 187.22955673 -100 181 C-108.20447989 186.76914436 -116.23926482 192.63894652 -124 199 C-124.89332031 199.70769531 -125.78664062 200.41539062 -126.70703125 201.14453125 C-148.0862804 218.21802952 -163.90011782 240.46440871 -167.62109375 268.10546875 C-169.33171026 285.68778481 -167.02083188 303.74956984 -157.625 319.0625 C-156 322 -156 322 -156.3984375 324.18359375 C-156.69621094 325.08271484 -156.69621094 325.08271484 -157 326 C-173.35889732 310.45303325 -187.65731481 290.60530589 -188.29345703 267.19189453 C-188.56688485 236.61705533 -169.18068968 212.83893848 -148.859375 191.8828125 C-141.26914213 184.18393365 -133.25911644 177.08667398 -124.8359375 170.3046875 C-122.29751893 168.24178536 -119.80122696 166.14114914 -117.31518555 164.01611328 C-106.62905991 154.88313835 -95.48914827 146.36050991 -84.31738281 137.83422852 C-72.34567803 128.69045354 -60.5868486 119.3171655 -49.01367188 109.67285156 C-47.19909872 108.16540063 -45.37441235 106.67135888 -43.546875 105.1796875 C-22.69949716 87.96851601 3.59834781 65.29633552 8 37 C8.84289676 24.30303132 7.67153817 15.22120488 1.2421875 4.28515625 C0 2 0 2 0 0 Z " fill="#698161" transform="translate(304,32)"/>
<path d="M0 0 C3.45260327 0.41431239 6.58244466 0.84498973 9.8515625 2.05859375 C13.30623431 3.09156634 15.67986674 3.05242741 19.25 2.6875 C20.39082031 2.57921875 21.53164063 2.4709375 22.70703125 2.359375 C24.66334051 2.14587506 26.61925165 1.92858403 28.57421875 1.703125 C45.65713897 -0.21693876 64.17054485 0.72462368 80 8 C80.91410645 8.42007324 80.91410645 8.42007324 81.84667969 8.84863281 C98.04982063 16.39025907 111.59757244 26.08198532 123 40 C124.23169922 41.423125 124.23169922 41.423125 125.48828125 42.875 C137.65352024 57.26780027 145.28657744 74.19641815 151.28320312 91.93237305 C151.98843742 93.96664732 152.75214872 95.96958371 153.53125 97.9765625 C161.13857067 118.1463629 163.43609441 140.57595883 164 162 C164.02723145 162.90959473 164.05446289 163.81918945 164.08251953 164.75634766 C164.87039173 195.01757749 163.93950592 231.55759473 151.4375 259.73828125 C149.91816273 263.18569054 148.96560168 266.54763428 148 270.1875 C140.96852035 294.99291961 130.09747827 319.09058112 116.01171875 340.6953125 C114.70114477 343.68078992 114.83988436 344.96548264 116 348 C124.36970117 357.72238015 137.17141746 365.81629851 150.08154297 367.22753906 C171.96680855 368.75341375 187.47537851 359.53514393 203.76171875 345.64453125 C205.86065234 343.78283976 207.94227103 341.9070367 210 340 C210.66 340.33 211.32 340.66 212 341 C211.19175781 341.73605469 210.38351562 342.47210938 209.55078125 343.23046875 C208.47129779 344.21608409 207.39187388 345.20176465 206.3125 346.1875 C205.78205078 346.67025391 205.25160156 347.15300781 204.70507812 347.65039062 C202.20731166 349.933625 199.77086026 352.23257512 197.39453125 354.64453125 C190.67352108 361.25590015 182.68558377 365.52576649 174 369 C173.07574219 369.39445312 172.15148437 369.78890625 171.19921875 370.1953125 C157.82482974 375.37132773 143.55516063 374.03108339 130.5 368.5234375 C122.80922558 364.98773546 116.3558877 360.5527972 110 355 C109.38898438 354.52046875 108.77796875 354.0409375 108.1484375 353.546875 C72.94310178 325.57551237 58.23080239 269.29391871 52.87353516 226.82836914 C47.94719757 181.67027464 54.55596518 133.21389555 82 96 C82.4345752 95.40912598 82.86915039 94.81825195 83.31689453 94.20947266 C84.6387125 92.42350487 85.97222362 90.64714876 87.3125 88.875 C87.72081055 88.33045166 88.12912109 87.78590332 88.54980469 87.22485352 C91.35209853 83.58152613 93.83638688 80.56937187 98.375 79.375 C102.73760217 80.4137148 104.64372386 83.32889575 107 87 C125.02434424 120.14543839 114.15349642 180.21800573 104.08007812 214.43847656 C103.40418177 216.63154451 102.70351518 218.81564005 102 221 C101.71253906 221.91942383 101.42507813 222.83884766 101.12890625 223.78613281 C97.54932426 235.20440524 93.81285581 246.40007229 88.43823242 257.1171875 C85.42346588 263.36081379 85.18986772 267.99575945 87.03125 274.82421875 C87.50299483 276.11862037 87.99325616 277.40639524 88.5 278.6875 C88.89614502 279.71472168 88.89614502 279.71472168 89.30029297 280.76269531 C92.7321043 289.2938187 97.224985 297.67665266 104 304 C112.14595429 292.17103446 119.65233991 280.11812731 126.59472656 267.54345703 C127.49114699 265.92099213 128.39353793 264.30180181 129.30371094 262.68701172 C140.60679217 242.60882175 149.13508805 220.96315684 156 199 C157.07098159 195.85637444 158.15098711 192.71613846 159.23828125 189.578125 C169.89557469 153.50728565 153.38886675 101.32932396 136.43286133 69.83959961 C132.84297967 63.44601497 128.63839173 57.68291506 124 52 C123.48953125 51.33742187 122.9790625 50.67484375 122.453125 49.9921875 C111.09441078 35.76188823 91.03294671 25.01716021 73.1328125 22.27734375 C63.39890836 21.41561408 53.98792826 21.46429985 44.4375 23.5625 C40.29330113 24.28448587 38.76198097 24.50088259 35.20703125 22.1640625 C32.94452833 19.88357466 30.9769599 17.52662865 29 15 C28.34 14.67 27.68 14.34 27 14 C27 13.34 27 12.68 27 12 C26.26910156 11.89300781 25.53820312 11.78601562 24.78515625 11.67578125 C21.79727018 10.9508103 19.98175692 9.88797628 17.4375 8.1875 C11.92602915 4.73763514 6.2141416 2.81512727 0 1 C0 0.67 0 0.34 0 0 Z M87 92 C77.85290296 109.5635088 71.94916594 126.56730665 68 146 C67.81775879 146.89589844 67.63551758 147.79179687 67.44775391 148.71484375 C61.58013655 179.40160676 63.24812283 214.30983118 69.57177734 244.76098633 C70.13513808 247.7065857 70.41639236 250.63495722 70.625 253.625 C70.69976562 254.64851562 70.77453125 255.67203125 70.8515625 256.7265625 C70.90054688 257.47679687 70.94953125 258.22703125 71 259 C73.93664773 255.6110578 75.73031323 252.6967633 77.1484375 248.44921875 C77.51106689 247.37075684 77.87369629 246.29229492 78.24731445 245.18115234 C78.61945068 244.02824707 78.99158691 242.8753418 79.375 241.6875 C79.7671167 240.48561035 80.1592334 239.2837207 80.56323242 238.04541016 C88.92722016 211.96046993 94.50033843 185.44935701 95 158 C95.04253906 156.28876953 95.04253906 156.28876953 95.0859375 154.54296875 C95.12602006 151.3564049 95.08470714 148.18572517 95 145 C94.98211426 144.31147949 94.96422852 143.62295898 94.94580078 142.91357422 C94.43404469 125.61472411 91.56270922 108.90391821 88 92 C87.67 92 87.34 92 87 92 Z " fill="#456B74" transform="translate(275,16)"/>
<path d="M0 0 C1.38150378 0.01006974 2.76301484 0.0191884 4.14453125 0.02734375 C7.47154732 0.0506096 10.79817285 0.08329436 14.125 0.125 C14.125 0.455 14.125 0.785 14.125 1.125 C7.855 1.455 1.585 1.785 -4.875 2.125 C-3.4828125 4.22875 -3.4828125 4.22875 -2.0625 6.375 C4.10354503 16.78293416 5.35313251 28.22897139 4.125 40.125 C3.27808836 42.88609869 2.24600307 45.45594508 1.125 48.125 C-0.04933594 47.980625 -1.22367188 47.83625 -2.43359375 47.6875 C-31.436303 44.27577366 -58.63627689 47.42081951 -85.875 58.125 C-86.52114258 58.37588379 -87.16728516 58.62676758 -87.83300781 58.88525391 C-105.9235339 66.02142034 -122.60097121 76.15191684 -137.875 88.125 C-138.79539062 88.83398438 -139.71578125 89.54296875 -140.6640625 90.2734375 C-145.82679946 94.31731505 -150.72288911 98.61144942 -155.5625 103.03515625 C-157.52485514 104.80856841 -159.52161409 106.50650245 -161.5625 108.1875 C-164.70511902 110.86129008 -167.35604601 113.81922652 -170.01953125 116.96484375 C-171.25466556 118.40280012 -172.52350174 119.81248982 -173.82421875 121.19140625 C-201.87114644 151.00098743 -221.20309509 189.65314007 -234.19580078 228.12695312 C-234.8542713 230.06402097 -235.53200916 231.99328119 -236.21484375 233.921875 C-239.21341187 242.562126 -241.46137968 251.22826336 -243.43408203 260.14404297 C-244.0784405 263.03901785 -244.76036804 265.92504093 -245.4375 268.8125 C-245.91749182 270.91647859 -246.39656159 273.02066763 -246.875 275.125 C-247.11250977 276.14907959 -247.35001953 277.17315918 -247.59472656 278.22827148 C-249.62604795 287.27928241 -250.94443618 296.30438512 -252.0625 305.5 C-252.2409761 306.92975756 -252.42001008 308.3594456 -252.59960938 309.7890625 C-253.03113883 313.23360185 -253.4552338 316.67900486 -253.875 320.125 C-254.205 320.125 -254.535 320.125 -254.875 320.125 C-255.54235995 292.80088787 -255.91671868 266.71301404 -248.875 240.125 C-248.70575012 239.48300659 -248.53650024 238.84101318 -248.36212158 238.17956543 C-244.00008405 221.73924702 -238.62016847 205.7473248 -231.875 190.125 C-231.215 190.125 -230.555 190.125 -229.875 190.125 C-229.545 188.97 -229.215 187.815 -228.875 186.625 C-223.27755881 169.93681486 -213.35308456 152.55784953 -202.72265625 138.609375 C-200.87338678 136.12283086 -199.24578112 133.57761575 -197.625 130.9375 C-191.29326235 120.83859579 -184.01783657 111.13553401 -175.90893555 102.39550781 C-173.79846171 100.03955935 -171.84339222 97.5997849 -169.87890625 95.12109375 C-165.09253443 89.24959611 -159.92196985 83.86701217 -154.54638672 78.53564453 C-153.00120622 77.00119784 -151.46703991 75.45631998 -149.93359375 73.91015625 C-143.57009632 67.53808208 -136.93394094 61.73054518 -129.875 56.125 C-128.75432811 55.19060682 -127.63751365 54.25153432 -126.52734375 53.3046875 C-121.33934117 48.90048387 -116.11173932 44.71734927 -110.48046875 40.89453125 C-108.61165034 39.62530375 -106.76209221 38.32753892 -104.92578125 37.01171875 C-74.13319867 15.08194591 -38.16990624 -0.48695661 0 0 Z " fill="#245A8B" transform="translate(254.875,13.875)"/>
<path d="M0 0 C0.99 0.33 1.98 0.66 3 1 C3.08975098 1.82798096 3.17950195 2.65596191 3.27197266 3.5090332 C8.85147068 53.9086458 21.26361484 107.50012415 52 149 C52.44698242 149.61633301 52.89396484 150.23266602 53.35449219 150.86767578 C58.91488057 158.53382759 64.58814609 165.9600967 71.05078125 172.8984375 C72.79527706 174.77927667 74.43467568 176.70618031 76.0625 178.6875 C78.74931704 181.84672443 81.72614886 184.51686344 84.88671875 187.1953125 C86.28805941 188.39202116 87.66644818 189.61617453 89.01953125 190.8671875 C111.24874528 211.40549657 142.06178588 228.49464452 172 234 C173.00417969 234.185625 174.00835937 234.37125 175.04296875 234.5625 C180.51635214 235.16765196 185.93592669 235.10494537 191.4375 235.0625 C192.55060547 235.05798828 193.66371094 235.05347656 194.81054688 235.04882812 C197.54042101 235.03711193 200.27018174 235.02070699 203 235 C199.44122843 239.69325662 196.02856586 242.64527276 190.9375 245.5625 C189.95656372 246.13556885 189.95656372 246.13556885 188.95581055 246.72021484 C173.71351439 255.44543452 173.71351439 255.44543452 168.66796875 254.6171875 C168.11753906 254.41351563 167.56710937 254.20984375 167 254 C168.06476563 253.59910156 169.12953125 253.19820312 170.2265625 252.78515625 C180.31206585 248.87397447 189.13822636 244.19341074 198 238 C197.0821875 238.27714844 196.164375 238.55429687 195.21875 238.83984375 C193.9915625 239.20207031 192.764375 239.56429687 191.5 239.9375 C190.2934375 240.29714844 189.086875 240.65679687 187.84375 241.02734375 C157.77875133 248.635255 125.34960216 238.41383357 99 224 C97.43378906 223.15308594 97.43378906 223.15308594 95.8359375 222.2890625 C73.52358244 209.74940121 53.67781043 192.16121305 38 172 C37.28328125 171.08863281 36.5665625 170.17726563 35.828125 169.23828125 C3.68837503 127.46800337 -14.08431965 75.39803991 -20.68725586 23.40966797 C-20.93506205 21.50034155 -21.27734477 19.60331166 -21.65234375 17.71484375 C-20.49600819 12.90254907 -16.14265761 10.87470413 -12.1875 8.25 C-11.35412109 7.67378906 -10.52074219 7.09757813 -9.66210938 6.50390625 C-7.4541852 4.98230067 -5.23282727 3.48472209 -3 2 C-2.01 1.34 -1.02 0.68 0 0 Z " fill="#1A579A" transform="translate(267,192)"/>
<path d="M0 0 C2.45746811 3.05010512 4.37342155 6.2951283 6.31030273 9.68457031 C28.78438107 48.99777579 61.96403681 79.93303284 106 93 C109.12946766 93.79648432 112.27444596 94.47630147 115.4375 95.125 C116.21931641 95.29386719 117.00113281 95.46273437 117.80664062 95.63671875 C127.23624935 97.60477184 136.5069439 98.17387638 146.125 98.125 C147.1348999 98.12016602 148.1447998 98.11533203 149.18530273 98.11035156 C170.32563927 97.9421573 190.73190739 95.18767421 211 89 C212.12462646 88.66258789 212.12462646 88.66258789 213.27197266 88.31835938 C232.38235542 82.50898695 250.70525452 74.51494847 268.4074707 65.28540039 C272.80945319 63 272.80945319 63 275 63 C266.75354998 49.80567997 251.49714801 41.73376261 237 37 C241.10245231 34.26503179 245.59477055 33.21622755 250.28320312 31.85546875 C254.53453369 30.63690133 254.53453369 30.63690133 258 28 C269.72736486 40.63243243 269.72736486 40.63243243 273.625 45.1875 C280.27418844 52.83246062 287.49913933 59.62930763 295.45703125 65.89453125 C298.14242019 68.11791779 300.57111792 70.50134752 303 73 C280.21323557 85.87030213 257.04927265 97.47886381 232.3190918 106.1706543 C230.68142752 106.75631021 229.05059362 107.36123711 227.42504883 107.97973633 C184.14222377 124.32774748 133.49414542 125.71963752 90.93676758 106.86352539 C73.96014208 99.02062052 59.48629532 87.83030957 46 75 C45.31550781 74.37996094 44.63101563 73.75992188 43.92578125 73.12109375 C27.58977418 57.8125085 12.08690774 34.26072321 5 13 C4.34 14.32 3.68 15.64 3 17 C2.49255577 15.10614563 1.99435426 13.20981334 1.5 11.3125 C1.2215625 10.25675781 0.943125 9.20101563 0.65625 8.11328125 C0.0608285 5.28857328 -0.12786492 2.87163292 0 0 Z " fill="#1A589B" transform="translate(3,346)"/>
<path d="M0 0 C2.61638331 1.30819166 2.84840721 2.47828822 4.03125 5.12890625 C4.62087524 6.42235962 4.62087524 6.42235962 5.22241211 7.74194336 C5.64401611 8.67272705 6.06562012 9.60351074 6.5 10.5625 C15.5139111 29.91363059 27.37467143 46.47590822 42 62 C42.93005859 63.00933594 42.93005859 63.00933594 43.87890625 64.0390625 C61.63222484 82.64483689 87.2813413 96.91646868 112.3125 102.625 C113.58383789 102.93050781 113.58383789 102.93050781 114.88085938 103.2421875 C170.40980767 116.21973946 226.85499232 97.87471089 276.015625 72.49609375 C279 71 279 71 282 70 C285.67648254 76.59604221 286.33065766 84.56020258 286 92 C286.99 92.33 287.98 92.66 289 93 C243.82536405 122.9182896 181.22395953 135.86439188 128.3125 125.25 C120.26231786 123.51969421 112.69782052 121.00942296 105.09814453 117.86376953 C102.84405113 116.93579857 100.57728222 116.04399431 98.30859375 115.15234375 C74.93616103 105.81935663 56.69793775 91.69793775 39 74 C38.40058594 73.45859375 37.80117188 72.9171875 37.18359375 72.359375 C29.86111129 65.61024128 24.53571517 57.20874893 19 49 C18.30261719 47.96875 17.60523437 46.9375 16.88671875 45.875 C10.96824197 36.84637024 6.36064279 27.42723242 2.625 17.3125 C2.36195068 16.62397949 2.09890137 15.93545898 1.82788086 15.22607422 C-0.02553329 9.99415086 -0.22847813 5.54331459 0 0 Z " fill="#446B77" transform="translate(7,358)"/>
<path d="M0 0 C0.16491943 1.04414063 0.32983887 2.08828125 0.49975586 3.1640625 C9.80921397 61.52312756 26.78135138 119.06056488 67 164 C67.804375 164.91394531 68.60875 165.82789063 69.4375 166.76953125 C90.00078267 189.93795953 115.18068208 206.85516294 144 218 C145.00933594 218.40992188 146.01867187 218.81984375 147.05859375 219.2421875 C166.42666055 226.49467115 188.81588217 228.35468369 209 224 C210.66648913 223.66578019 212.33310353 223.33218224 214 223 C213 225 213 225 210.62890625 226 C209.61699219 226.33 208.60507812 226.66 207.5625 227 C206.57378906 227.33 205.58507812 227.66 204.56640625 228 C195.12362752 230.64770137 186.37560825 231.3220821 176.5625 231.25 C175.90314453 231.24689819 175.24378906 231.24379639 174.56445312 231.24060059 C158.46905547 231.15198241 143.32411202 230.26983038 128 225 C127.37029297 224.78859375 126.74058594 224.5771875 126.09179688 224.359375 C104.01212529 216.87621537 85.36664527 204.38845786 68 189 C67.14019531 188.25105469 66.28039062 187.50210938 65.39453125 186.73046875 C54.62338937 177.22652003 44.96977749 167.30043459 36.35888672 155.81201172 C35.00188236 154.00251003 33.62848348 152.20632905 32.25390625 150.41015625 C5.65268004 115.29257437 -13.46494196 72.58833381 -19.59179688 28.79711914 C-19.85156905 27.01708938 -20.15731221 25.24272851 -20.52319336 23.48144531 C-21.06338552 20.81645489 -21.00184857 19.55836867 -20 17 C-16.27454658 12.40175232 -11.56805755 8.7201885 -7 5 C-5.87719586 4.04735603 -4.75477523 3.09425979 -3.6328125 2.140625 C-1 0 -1 0 0 0 Z " fill="#47707D" transform="translate(246,208)"/>
<path d="M0 0 C3.68437488 0.77114823 5.01830144 2.42191573 7.2734375 5.359375 C27.01792794 36.12150928 15.3449051 93.04204518 8.09765625 126.26660156 C6.85888786 131.44166331 5.31814775 136.49946547 3.6875 141.5625 C3.40003906 142.48192383 3.11257813 143.40134766 2.81640625 144.34863281 C-0.76317574 155.76690524 -4.49964419 166.96257229 -9.87426758 177.6796875 C-12.88903412 183.92331379 -13.12263228 188.55825945 -11.28125 195.38671875 C-10.80950517 196.68112037 -10.31924384 197.96889524 -9.8125 199.25 C-9.54840332 199.93481445 -9.28430664 200.61962891 -9.01220703 201.32519531 C-5.5803957 209.8563187 -1.087515 218.23915266 5.6875 224.5625 C13.83345429 212.73353446 21.33983991 200.68062731 28.28222656 188.10595703 C29.17864699 186.48349213 30.08103793 184.86430181 30.99121094 183.24951172 C42.29354185 163.17265459 50.83945291 141.53049264 57.6875 119.5625 C58.67632923 116.5587315 59.67933146 113.55982779 60.6875 110.5625 C61.9658551 114.83966796 61.14203541 118.19832723 60.0625 122.4375 C59.84795166 123.2819165 59.63340332 124.12633301 59.41235352 124.99633789 C49.08003803 163.65373541 32.95058703 200.09397087 14.6875 235.5625 C10.43240129 233.5417094 8.58017154 231.25869142 5.6875 227.5625 C2.28981132 230.69882801 -0.29510574 234.19065529 -2.9453125 237.953125 C-3.62207031 238.74976563 -3.62207031 238.74976563 -4.3125 239.5625 C-4.9725 239.5625 -5.6325 239.5625 -6.3125 239.5625 C-28.07969324 195.92939608 -28.07969324 195.92939608 -26.3125 177.5625 C-25.46648068 175.2742394 -24.46914663 173.10960995 -23.41308594 170.91064453 C-10.32884148 142.99488073 -4.86913222 109.14159033 -4.3125 78.5625 C-4.26996094 76.85126953 -4.26996094 76.85126953 -4.2265625 75.10546875 C-4.18647994 71.9189049 -4.22779286 68.74822517 -4.3125 65.5625 C-4.33038574 64.87397949 -4.34827148 64.18545898 -4.36669922 63.47607422 C-4.86898325 46.4974074 -7.50857691 30.10012309 -11.3125 13.5625 C-12.3025 14.8825 -13.2925 16.2025 -14.3125 17.5625 C-13.78991957 13.15223792 -12.24397994 10.77258836 -9.4375 7.375 C-8.73882812 6.51519531 -8.04015625 5.65539062 -7.3203125 4.76953125 C-5.07927797 2.30613726 -3.27089218 0.79562242 0 0 Z " fill="#316184" transform="translate(373.3125,95.4375)"/>
<path d="M0 0 C10.97537217 4.8340965 19.25268937 18.33575149 24 29 C24.7107664 31.66537399 25.36869373 34.31694837 26 37 C26.34160156 38.15886719 26.68320312 39.31773438 27.03515625 40.51171875 C31.42283661 58.14831279 28.20820013 76.35064657 19.25 91.8125 C15.36520002 97.76337337 10.9490317 102.91788509 6 108 C5.26394531 108.79792969 4.52789062 109.59585938 3.76953125 110.41796875 C-7.34179388 122.12487579 -21.00019334 130.96005895 -34.60351562 139.49365234 C-37.30031937 141.18877042 -39.98554174 142.90162331 -42.671875 144.61328125 C-44.59313472 145.82649574 -46.51500175 147.03874908 -48.4375 148.25 C-49.35619873 148.83579834 -50.27489746 149.42159668 -51.22143555 150.02514648 C-52.50207886 150.82480835 -52.50207886 150.82480835 -53.80859375 151.640625 C-54.95026001 152.36040527 -54.95026001 152.36040527 -56.11499023 153.09472656 C-56.73704346 153.3934668 -57.35909668 153.69220703 -58 154 C-58.66 153.67 -59.32 153.34 -60 153 C-58.74896484 151.78376953 -58.74896484 151.78376953 -57.47265625 150.54296875 C-50.49222827 143.69888132 -44.01617737 136.72274115 -38 129 C-37.18917969 128.00613281 -36.37835938 127.01226562 -35.54296875 125.98828125 C-24.02754666 111.73257004 -16.39154937 96.70160345 -12.6875 78.6875 C-11.37930082 73.16072593 -8.88026705 69.98667178 -5.1953125 65.7578125 C5.72265518 52.04235844 9.4142428 36.77098039 7.75390625 19.4296875 C6.77313598 13.78773067 4.12375065 9.18657108 1.2421875 4.28515625 C0 2 0 2 0 0 Z " fill="#829055" transform="translate(304,32)"/>
<path d="M0 0 C11.7549107 13.84777314 14.26807638 38.24888066 13.22753906 55.55517578 C11.94417405 69.34446471 5.99158902 82.5282231 -3 93 C-3.51433594 93.63164062 -4.02867187 94.26328125 -4.55859375 94.9140625 C-12.9558288 104.30250792 -25.35746404 109.65559886 -36.375 115.375 C-50.06530137 122.5043729 -62.93932772 130.84221847 -75.10180664 140.34301758 C-79.80767672 144 -79.80767672 144 -82 144 C-82.34313868 142.18933073 -82.67392018 140.37631899 -83 138.5625 C-83.185625 137.55316406 -83.37125 136.54382813 -83.5625 135.50390625 C-83.706875 134.34761719 -83.85125 133.19132813 -84 132 C-84.17885742 130.89966431 -84.17885742 130.89966431 -84.36132812 129.77709961 C-84.60828467 127.29119149 -84.63422528 125.42105452 -84 123 C-81.57211582 120.42235922 -78.63602885 119.02254211 -75.5 117.4375 C-73.66071738 116.42270611 -71.82492471 115.40156784 -69.9921875 114.375 C-69.01733398 113.83617187 -68.04248047 113.29734375 -67.03808594 112.7421875 C-37.930387 96.05040514 -8.19542439 75.36270571 2 42 C2.33 41.01 2.66 40.02 3 39 C3.26128707 34.98370105 3.23151002 30.96138143 3.25 26.9375 C3.270625 25.84244141 3.29125 24.74738281 3.3125 23.61914062 C3.34243781 17.33594358 2.78706231 12.04963728 0.64746094 6.12329102 C0 4 0 4 0 0 Z " fill="#4B7378" transform="translate(328,63)"/>
<path d="M0 0 C30.55370685 25.54733621 42.45818462 68.75416765 47.41430664 106.78198242 C47.85174675 111.82205325 47.85042619 116.83427279 47.68383789 121.88745117 C47.35383789 121.88745117 47.02383789 121.88745117 46.68383789 121.88745117 C46.56379395 121.11369141 46.44375 120.33993164 46.32006836 119.54272461 C42.0206829 92.24182917 36.42931438 63.6581692 19.68383789 40.88745117 C19.13211914 40.1165918 18.58040039 39.34573242 18.01196289 38.55151367 C5.34295929 21.52390792 -11.91310948 9.94938021 -32.97827148 6.18774414 C-41.63388308 5.07596446 -51.84721906 4.50391154 -60.31616211 6.88745117 C-60.9078418 5.80206055 -61.49952148 4.71666992 -62.10913086 3.59838867 C-62.90697097 2.15289013 -63.70516705 0.70758802 -64.50366211 -0.73754883 C-64.89102539 -1.45040039 -65.27838867 -2.16325195 -65.67749023 -2.89770508 C-67.59721151 -6.35637646 -69.52989982 -9.50873827 -72.11694336 -12.51098633 C-74.31616211 -15.11254883 -74.31616211 -15.11254883 -74.31616211 -17.11254883 C-47.45547286 -22.42773822 -21.67332643 -17.44481382 0 0 Z " fill="#1A589B" transform="translate(388.316162109375,56.112548828125)"/>
<path d="M0 0 C3.45260327 0.41431239 6.58244466 0.84498973 9.8515625 2.05859375 C13.30623431 3.09156634 15.67986674 3.05242741 19.25 2.6875 C20.39082031 2.57921875 21.53164063 2.4709375 22.70703125 2.359375 C24.66334051 2.14587506 26.61925165 1.92858403 28.57421875 1.703125 C45.65713897 -0.21693876 64.17054485 0.72462368 80 8 C80.91410645 8.42007324 80.91410645 8.42007324 81.84667969 8.84863281 C98.04982063 16.39025907 111.59757244 26.08198532 123 40 C124.23169922 41.423125 124.23169922 41.423125 125.48828125 42.875 C137.65352024 57.26780027 145.28657744 74.19641815 151.28320312 91.93237305 C151.98843742 93.96664732 152.75214872 95.96958371 153.53125 97.9765625 C161.13857067 118.1463629 163.43609441 140.57595883 164 162 C164.02723145 162.90959473 164.05446289 163.81918945 164.08251953 164.75634766 C164.85502988 194.42754721 163.29551089 227.81241839 153 256 C152.34 256.33 151.68 256.66 151 257 C151.54620816 251.97488495 152.36116234 247.37231573 153.75 242.5 C160.17535792 217.74293803 161.83685507 193.43683319 161 168 C160.97631348 167.05398926 160.95262695 166.10797852 160.92822266 165.13330078 C159.9095596 125.84967067 149.20187888 82.87711114 124 52 C123.48953125 51.33742187 122.9790625 50.67484375 122.453125 49.9921875 C111.09441078 35.76188823 91.03294671 25.01716021 73.1328125 22.27734375 C63.39890836 21.41561408 53.98792826 21.46429985 44.4375 23.5625 C40.29330113 24.28448587 38.76198097 24.50088259 35.20703125 22.1640625 C32.94452833 19.88357466 30.9769599 17.52662865 29 15 C28.34 14.67 27.68 14.34 27 14 C27 13.34 27 12.68 27 12 C26.26910156 11.89300781 25.53820312 11.78601562 24.78515625 11.67578125 C21.79727018 10.9508103 19.98175692 9.88797628 17.4375 8.1875 C11.92602915 4.73763514 6.2141416 2.81512727 0 1 C0 0.67 0 0.34 0 0 Z " fill="#43666D" transform="translate(275,16)"/>
<path d="M0 0 C12.35050667 -1.30770071 25.16860521 3.68444308 35 11 C40.38060237 15.51276328 44.47306475 20.03611774 45.43359375 27.26171875 C45.44935989 41.08862327 40.91498421 49.99202439 33 61 C29.40160393 59.31842508 26.15241333 57.20531177 22.8125 55.0625 C17.69323281 51.83461623 12.84713343 49.5856633 7 48 C7.33 46.845 7.66 45.69 8 44.5 C11.49430113 28.53682576 8.41220024 13.82976609 0 0 Z " fill="#3C6B84" transform="translate(249,15)"/>
<path d="M0 0 C5.28 0 10.56 0 16 0 C16 0.66 16 1.32 16 2 C17.85625 2.309375 17.85625 2.309375 19.75 2.625 C26.01364267 4.00042864 31.37434178 7.01635131 37 10 C38.99767444 11.00463767 40.99704146 12.00593909 43 13 C43 13.66 43 14.32 43 15 C43.99 15.33 44.98 15.66 46 16 C46.5 17.6640625 46.5 17.6640625 47 20 C48.48530561 23.2659845 50.05382099 26.48548827 51.625 29.7109375 C56.05670949 40.31178805 55.04727824 53.16979432 51.3203125 63.81640625 C47.02123673 74.1825209 41.20213844 83.42234585 34 92 C33.67 92 33.34 92 33 92 C32.85304688 90.76636719 32.85304688 90.76636719 32.703125 89.5078125 C31.24301965 78.60737082 28.18679975 70.07735374 22 61 C22.61488281 60.09378906 23.22976563 59.18757813 23.86328125 58.25390625 C31.41295204 46.96281944 35.73134704 38.0838423 34 24 C31.47770764 16.73673218 24.96382258 11.1895966 18.390625 7.55859375 C12.44452016 4.74511194 6.34921781 2.69404293 0 1 C0 0.67 0 0.34 0 0 Z " fill="#627F69" transform="translate(259,15)"/>
<path d="M0 0 C4.25673552 3.35104711 7.70477143 6.74310442 11.0625 11 C19.12863621 21.08610558 28.40877515 30.10698221 38.59765625 38.03515625 C41.22016349 40.18006867 43.6043588 42.6043588 46 45 C38.08 49.455 38.08 49.455 30 54 C27.44227692 51.44227692 26.40791423 48.77972347 24.875 45.5 C16.21848164 27.7408214 1.28075384 16.89251877 -16.9375 10 C-17.948125 9.67 -18.95875 9.34 -20 9 C-15.87712392 6.25141595 -11.34554407 5.20893873 -6.62890625 3.85546875 C-4.7355694 3.29127514 -2.86528172 2.6509708 -1 2 C-0.67 1.34 -0.34 0.68 0 0 Z " fill="#306184" transform="translate(260,374)"/>
<path d="M0 0 C1.62802794 4.08064146 0.41366885 7.79630406 -0.625 11.875 C-0.83954834 12.7194165 -1.05409668 13.56383301 -1.27514648 14.43383789 C-11.60746197 53.09123541 -27.73691297 89.53147087 -46 125 C-49.40823474 123.41892359 -51.06208739 121.95796777 -53.25 118.875 C-54.03117187 117.78832031 -54.03117187 117.78832031 -54.828125 116.6796875 C-55.21484375 116.12539063 -55.6015625 115.57109375 -56 115 C-55.56171875 114.43796875 -55.1234375 113.8759375 -54.671875 113.296875 C-29.428455 79.84421272 -11.9597693 39.95775457 0 0 Z " fill="#1A589B" transform="translate(434,206)"/>
<path d="M0 0 C0.33865141 2.99948391 0.67105073 5.99944926 1 9 C1.09539062 9.83917969 1.19078125 10.67835938 1.2890625 11.54296875 C1.55861721 14.02672284 1.78593038 16.51090611 2 19 C2.08080811 19.71921631 2.16161621 20.43843262 2.24487305 21.17944336 C2.51204623 25.01321762 2.07691449 27.39158229 -0.23046875 30.37890625 C-1.19739518 31.45721679 -2.18392529 32.51821167 -3.1875 33.5625 C-4.19975679 34.68062853 -5.21019628 35.80040516 -6.21875 36.921875 C-6.70214844 37.44974609 -7.18554688 37.97761719 -7.68359375 38.52148438 C-10.04826092 41.17734943 -12.01495098 44.05665146 -14 47 C-20.00811585 41.25310658 -18.92843211 32.75442597 -19.19943237 24.90719604 C-19.43170183 13.19417905 -19.43170183 13.19417905 -16.34326172 8.4609375 C-12.42919582 4.8011264 -5.65127156 0 0 0 Z " fill="#959B46" transform="translate(223,200)"/>
<path d="M0 0 C0.33 0 0.66 0 1 0 C5.2092712 17.94363321 5.2092712 17.94363321 1.71923828 24.3515625 C-2.15407564 29.06172392 -6.95028036 32.63607061 -12 36 C-12.91072266 36.6182666 -12.91072266 36.6182666 -13.83984375 37.24902344 C-15.21873364 38.17774634 -16.60808918 39.09090824 -18 40 C-18.55893823 36.62640852 -19.06045835 33.26141791 -19.48046875 29.8671875 C-19.91394474 26.08900055 -19.91394474 26.08900055 -20.80078125 22.8203125 C-21.44093327 19.13577339 -21.54423384 17.45181683 -20 14 C-14.92717884 9.4872695 -8.8378652 6.28334795 -2.85766602 3.13818359 C-0.84460961 2.1300701 -0.84460961 2.1300701 0 0 Z " fill="#7E8F58" transform="translate(243,186)"/>
<path d="M0 0 C0.66 0.33 1.32 0.66 2 1 C3.42110715 14.05313239 3.42110715 14.05313239 2 20 C-1.36826905 23.99947039 -5.35146911 25.75089044 -10 28 C-11.74348103 29.2870332 -13.45642611 30.61723403 -15.125 32 C-18.78125 35 -18.78125 35 -21 35 C-21.34313868 33.18933073 -21.67392018 31.37631899 -22 29.5625 C-22.185625 28.55316406 -22.37125 27.54382813 -22.5625 26.50390625 C-22.706875 25.34761719 -22.85125 24.19132812 -23 23 C-23.201698 21.91489136 -23.201698 21.91489136 -23.4074707 20.80786133 C-23.70415221 18.24732982 -23.73602841 16.47888814 -23 14 C-20.11641116 11.14910055 -16.76669201 9.4195585 -13.1875 7.5625 C-12.25873047 7.04751953 -11.32996094 6.53253906 -10.37304688 6.00195312 C-8.64950387 5.04747119 -6.9179983 4.1071311 -5.17651367 3.18579102 C-2.81602387 1.94165092 -2.81602387 1.94165092 0 0 Z " fill="#5E7D6D" transform="translate(267,172)"/>
<path d="M0 0 C3.60591001 3.8520107 4.596043 8.5366532 5.9375 13.5 C6.19619873 14.45543701 6.45489746 15.41087402 6.72143555 16.39526367 C11.28162225 34.10509773 13.62947108 52.72057307 14 71 C14.03867187 72.35351562 14.03867187 72.35351562 14.078125 73.734375 C14.85506178 103.41336001 13.2984364 136.80440879 3 165 C2.34 165.33 1.68 165.66 1 166 C1.54620816 160.97488495 2.36116234 156.37231573 3.75 151.5 C10.17535792 126.74293803 11.83685507 102.43683319 11 77 C10.97631348 76.05398926 10.95262695 75.10797852 10.92822266 74.13330078 C10.56126915 59.98213893 8.75990445 45.81025241 5.37646484 32.05810547 C4.97666311 29.87241895 4.96330046 27.90313368 5.0625 25.6875 C5.23643089 19.08972148 3.45466563 12.44580368 0.8984375 6.390625 C0 4 0 4 0 0 Z " fill="#243339" transform="translate(425,107)"/>
<path d="M0 0 C6.51132785 4.79135446 12.77134927 9.84762347 19 15 C15.43312878 18.04408304 11.90489084 20.21082201 7.6875 22.25 C6.61886719 22.77078125 5.55023438 23.2915625 4.44921875 23.828125 C3.23685547 24.40820312 3.23685547 24.40820312 2 25 C-1.33333333 18.33333333 -4.66666667 11.66666667 -8 5 C-4.04 2.525 -4.04 2.525 0 0 Z " fill="#47707C" transform="translate(287,403)"/>
<path d="M0 0 C2.36036485 2.36036485 3.16875807 4.43504764 4.5 7.5 C13.198362 26.58572634 24.13719029 42.43003453 38.61425781 57.55126953 C39.85365629 58.8470043 41.08007232 60.1551282 42.3046875 61.46484375 C56.16079632 75.90463481 73.9467536 86.6105502 92 95 C88.35751799 96.21416067 87.13924898 95.39007025 83.81005859 93.75292969 C83.13023926 93.40133789 82.45041992 93.04974609 81.75 92.6875 C81.04053223 92.32430664 80.33106445 91.96111328 79.60009766 91.58691406 C67.00044201 84.98669525 56.06463256 76.76633798 45.48046875 67.31298828 C43.53756846 65.58988179 41.54674876 63.92516385 39.5625 62.25 C35.6584412 58.81011805 32.30913238 55.00732295 29 51 C28.04287109 49.85724609 28.04287109 49.85724609 27.06640625 48.69140625 C15.68923846 34.83033438 3.19033278 17.98187569 0 0 Z " fill="#171B1D" transform="translate(11,375)"/>
<path d="M0 0 C-3.44856004 1.19189863 -5.45647117 0.78580886 -8.875 -0.375 C-14.85818537 -2.38189917 -20.39761473 -3.12661645 -26.7109375 -3.09765625 C-27.95488281 -3.09443359 -29.19882812 -3.09121094 -30.48046875 -3.08789062 C-31.76566406 -3.07951172 -33.05085938 -3.07113281 -34.375 -3.0625 C-35.68339844 -3.05798828 -36.99179687 -3.05347656 -38.33984375 -3.04882812 C-41.55994281 -3.03707594 -44.7799477 -3.02064543 -48 -3 C-47.67 -3.66 -47.34 -4.32 -47 -5 C-31.2663505 -9.80009646 -14.70394371 -6.67437076 0 0 Z " fill="#5A7B70" transform="translate(365,41)"/>
<path d="M0 0 C0.66 0.33 1.32 0.66 2 1 C1.19175781 1.73605469 0.38351562 2.47210938 -0.44921875 3.23046875 C-1.52870221 4.21608409 -2.60812612 5.20176465 -3.6875 6.1875 C-4.48317383 6.91163086 -4.48317383 6.91163086 -5.29492188 7.65039062 C-7.79268834 9.933625 -10.22913974 12.23257512 -12.60546875 14.64453125 C-19.07814564 21.01161798 -27.32595023 26.22892254 -36 29 C-36.99 28.67 -37.98 28.34 -39 28 C-39 27.34 -39 26.68 -39 26 C-37.7625 25.55914062 -37.7625 25.55914062 -36.5 25.109375 C-22.39310636 19.63035827 -10.94516646 10.33710166 0 0 Z " fill="#2C434A" transform="translate(485,356)"/>
<path d="M0 0 C7.25435149 -0.25453865 7.25435149 -0.25453865 10.91796875 0.99609375 C16.68944383 2.7376671 22.78393286 2.24703533 28.75 2.1875 C30.56757813 2.1865332 30.56757813 2.1865332 32.421875 2.18554688 C39.66592911 2.15041946 46.7999732 1.80174568 54 1 C50.04039776 4.95960224 44.33298549 4.17209264 39.0234375 4.203125 C38.25754303 4.20882507 37.49164856 4.21452515 36.70254517 4.22039795 C35.08377449 4.22981838 33.46498488 4.23637014 31.84619141 4.24023438 C29.40361783 4.24988691 26.96190582 4.28091544 24.51953125 4.3125 C15.90502008 4.36923952 8.19913563 4.01582631 0 1 C0 0.67 0 0.34 0 0 Z " fill="#060708" transform="translate(364,450)"/>
<path d="M0 0 C3.23224457 3.52608499 4.35517722 7.34806425 5 12 C4.625 15 4.625 15 4 17 C1.01708988 11.88643979 -0.36844835 5.89517358 0 0 Z " fill="#294557" transform="translate(3,346)"/>
<path d="M0 0 C5.28 0 10.56 0 16 0 C16 0.33 16 0.66 16 1 C13.36 1 10.72 1 8 1 C8 1.66 8 2.32 8 3 C5.36 2.34 2.72 1.68 0 1 C0 0.67 0 0.34 0 0 Z " fill="#4C665D" transform="translate(259,15)"/>
<path d="M0 0 C0.66 0.33 1.32 0.66 2 1 C0.71283353 2.00578589 -0.57988658 3.00446798 -1.875 4 C-2.95394531 4.8353125 -2.95394531 4.8353125 -4.0546875 5.6875 C-6 7 -6 7 -8 7 C-8 6.01 -8 5.02 -8 4 C-6.71349294 3.30289269 -5.42059335 2.61757124 -4.125 1.9375 C-3.40570313 1.55464844 -2.68640625 1.17179687 -1.9453125 0.77734375 C-1.30335938 0.52082031 -0.66140625 0.26429688 0 0 Z " fill="#57766A" transform="translate(464,429)"/>
<path d="M0 0 C5.52677733 -0.19392201 9.75614911 0.2520497 15 2 C15 2.33 15 2.66 15 3 C9.47322267 3.19392201 5.24385089 2.7479503 0 1 C0 0.67 0 0.34 0 0 Z " fill="#172025" transform="translate(364,450)"/>
</svg>
