<?xml version="1.0" standalone="no"?>
<!DOCTYPE svg PUBLIC "-//W3C//DTD SVG 20010904//EN"
 "http://www.w3.org/TR/2001/REC-SVG-20010904/DTD/svg10.dtd">
<svg version="1.0" xmlns="http://www.w3.org/2000/svg"
 width="500.000000pt" height="500.000000pt" viewBox="0 0 500.000000 500.000000"
 preserveAspectRatio="xMidYMid meet">

<g transform="translate(0.000000,500.000000) scale(0.100000,-0.100000)"
fill="#000000" stroke="none">
<path d="M2348 4840 c-162 -20 -359 -89 -548 -190 -184 -99 -274 -154 -355
-218 -40 -31 -110 -86 -156 -122 -165 -128 -457 -429 -591 -610 -162 -220
-265 -382 -386 -611 -81 -153 -156 -354 -227 -609 -10 -36 -21 -69 -24 -75 -3
-5 -7 -19 -8 -30 -1 -11 -4 -31 -7 -45 -31 -142 -38 -197 -43 -376 -4 -162 -2
-226 12 -325 10 -68 22 -130 27 -136 6 -7 7 -13 3 -13 -4 0 -2 -6 4 -14 6 -8
11 -18 10 -22 -1 -5 3 -22 9 -37 7 -16 12 -34 12 -42 0 -27 72 -213 115 -297
87 -173 232 -352 399 -497 134 -115 197 -157 359 -239 216 -110 404 -162 662
-182 238 -19 517 20 760 105 55 20 105 37 110 38 6 2 32 13 59 25 27 12 52 22
55 22 25 0 332 147 343 164 4 6 8 7 8 2 0 -6 6 -2 13 9 8 10 19 15 26 11 7 -5
10 -2 9 6 -2 7 7 14 20 16 13 2 26 10 29 18 3 8 9 11 14 8 5 -3 12 2 15 10 3
9 10 14 14 11 4 -3 19 4 33 15 14 11 30 20 37 20 6 0 22 11 35 25 14 13 25 20
25 15 0 -6 11 -10 25 -10 15 0 39 -7 56 -15 16 -9 35 -13 41 -9 6 4 8 3 5 -4
-9 -14 127 -83 218 -111 124 -39 213 -51 372 -51 151 0 294 20 368 51 17 7 34
11 38 10 5 -1 5 4 1 10 -4 8 1 9 17 4 21 -7 22 -6 10 9 -12 14 -12 16 3 10 12
-5 15 -2 10 12 -3 12 0 10 9 -5 10 -16 16 -20 21 -12 4 7 2 20 -5 29 -11 14
-11 15 1 5 17 -15 50 -17 50 -3 0 5 6 7 13 5 19 -7 50 21 41 37 -6 11 -5 11 8
0 13 -11 21 -8 46 13 16 14 33 25 36 25 14 0 113 79 151 121 150 164 245 375
245 546 l0 73 -40 20 c-54 28 -76 20 -162 -57 -96 -86 -227 -171 -306 -200
-51 -19 -83 -23 -172 -23 -136 0 -175 12 -302 97 -100 66 -148 112 -148 140 0
9 24 55 53 102 83 136 150 274 212 436 31 83 63 164 70 180 32 75 81 252 113
410 95 465 74 973 -56 1370 -37 112 -151 347 -210 435 -149 218 -375 393 -584
454 -141 41 -267 49 -438 30 l-145 -16 -80 27 c-70 24 -98 27 -235 30 -85 2
-185 0 -222 -5z m768 -222 c132 -143 204 -326 204 -515 0 -226 -109 -419 -345
-613 -87 -71 -285 -205 -428 -290 l-109 -64 7 -81 c3 -44 8 -91 11 -105 4 -21
-8 -36 -77 -95 -86 -74 -233 -241 -276 -313 -25 -41 -25 -46 -14 -100 7 -31
16 -71 22 -88 5 -17 9 -44 9 -61 0 -16 3 -33 7 -36 3 -4 8 -21 10 -39 2 -18 7
-34 11 -37 4 -4 8 -19 10 -36 2 -16 7 -31 12 -33 5 -2 6 -10 3 -18 -3 -8 0
-14 7 -14 6 0 8 -5 5 -11 -4 -6 3 -17 14 -26 17 -11 19 -18 11 -28 -8 -10 -3
-34 20 -94 17 -45 36 -81 41 -81 6 0 8 -4 5 -9 -3 -5 1 -11 8 -14 8 -3 16 -1
19 6 2 6 6 3 10 -7 4 -10 3 -15 -3 -11 -12 8 -13 -19 -1 -43 5 -9 14 -30 21
-47 23 -56 50 -103 75 -134 11 -13 14 -21 6 -16 -11 6 -11 4 -3 -10 9 -17 25
-24 59 -27 7 -1 10 -5 7 -10 -3 -4 -14 -3 -25 2 -27 15 -24 2 17 -60 42 -65
71 -93 84 -85 5 3 8 0 5 -7 -6 -17 31 -61 45 -53 6 3 7 0 4 -9 -4 -10 -1 -16
7 -16 7 0 9 -3 6 -7 -4 -3 1 -12 11 -20 9 -8 11 -12 5 -8 -7 3 -13 0 -13 -7 0
-8 -20 -19 -46 -26 -25 -7 -65 -21 -88 -32 -72 -32 -234 -60 -354 -60 -198 0
-331 36 -469 126 -56 37 -175 148 -182 169 -2 6 -7 9 -11 8 -5 -2 -11 6 -15
16 -3 10 -14 29 -25 41 -11 12 -17 27 -14 31 3 5 0 9 -6 9 -6 0 -8 5 -4 12 5
8 1 9 -12 4 -14 -5 -16 -4 -8 4 12 12 8 50 -5 50 -4 0 -8 8 -9 18 -1 9 -4 26
-6 37 -2 11 -5 30 -5 43 -1 13 -5 21 -10 18 -5 -4 -7 4 -3 16 3 11 1 19 -4 16
-5 -4 -9 46 -9 118 0 68 3 124 7 124 4 0 6 19 4 43 -1 23 3 48 10 54 7 7 11
24 10 38 -2 14 0 25 4 25 6 0 10 16 11 53 0 9 5 17 10 17 6 0 7 4 4 10 -3 5 0
10 7 10 9 0 9 3 -2 10 -13 9 -13 10 0 10 14 0 68 96 63 112 -2 4 6 10 17 13
11 4 18 11 15 16 -4 5 -2 9 3 9 11 0 55 60 55 76 0 7 4 11 9 8 4 -3 12 5 17
18 5 13 37 50 70 83 56 55 84 95 44 64 -16 -13 -17 -12 -4 4 10 13 17 15 27 6
11 -9 14 -8 14 0 0 7 4 10 9 7 5 -3 23 7 40 23 16 15 32 26 35 24 4 -4 29 34
31 47 0 3 6 14 14 25 9 15 11 16 7 3 -3 -10 -1 -18 4 -18 6 0 10 5 10 10 0 6
5 10 10 10 11 0 52 27 109 72 19 15 38 25 43 22 4 -3 54 24 110 59 57 35 142
87 191 116 48 29 87 55 87 57 0 3 -6 2 -12 -2 -7 -4 36 42 96 102 229 230 367
459 400 664 4 21 28 65 60 107 63 84 120 194 141 273 31 117 10 260 -53 360
-15 25 -32 52 -37 59 -15 25 49 -25 91 -71z m526 -719 c49 -217 61 -327 61
-579 0 -223 -11 -349 -42 -495 -46 -213 -54 -243 -115 -405 -20 -52 -43 -114
-52 -138 -23 -61 -45 -56 -43 11 1 28 -5 77 -13 107 -31 110 -43 270 -43 550
0 243 3 290 24 405 12 72 26 135 29 140 4 6 7 15 7 20 1 6 4 17 7 25 3 8 24
74 48 145 48 146 98 257 114 252 6 -2 14 -19 18 -38z m-1631 -996 c13 -16 12
-17 -3 -4 -10 7 -18 15 -18 17 0 8 8 3 21 -13z m-19 -18 c0 -5 -5 -10 -11 -11
-8 -2 -7 -1 0 3 8 4 7 8 -2 15 -11 8 -11 9 -1 6 8 -2 14 -8 14 -13z m-204
-150 c-3 -3 -9 2 -12 12 -6 14 -5 15 5 6 7 -7 10 -15 7 -18z m-235 -160 c-3
-9 -8 -14 -10 -11 -3 3 -2 9 2 15 9 16 15 13 8 -4z m25 -9 c-7 -8 -15 -12 -17
-11 -5 6 10 25 20 25 5 0 4 -6 -3 -14z m22 -9 c0 -2 -10 -12 -21 -23 -22 -19
-22 -19 -8 4 12 19 29 30 29 19z m504 -83 c3 -8 2 -12 -4 -9 -6 3 -10 10 -10
16 0 14 7 11 14 -7z m-624 -74 c0 -5 -5 -10 -11 -10 -5 0 -7 5 -4 10 3 6 8 10
11 10 2 0 4 -4 4 -10z m665 -50 c-3 -5 -12 -10 -18 -10 -7 0 -6 4 3 10 19 12
23 12 15 0z m-765 -119 c0 -6 -4 -12 -8 -15 -5 -3 -9 1 -9 9 0 8 4 15 9 15 4
0 8 -4 8 -9z m-54 -131 c0 -12 -4 -16 -9 -11 -5 5 -6 14 -3 20 10 15 12 14 12
-9z m904 -100 c0 -5 -5 -10 -11 -10 -5 0 -7 5 -4 10 3 6 8 10 11 10 2 0 4 -4
4 -10z m35 -90 c3 -6 -1 -7 -9 -4 -18 7 -21 14 -7 14 6 0 13 -4 16 -10z m-964
-77 c-12 -20 -14 -14 -5 12 4 9 9 14 11 11 3 -2 0 -13 -6 -23z m1136 -275 c-3
-8 -6 -5 -6 6 -1 11 2 17 5 13 3 -3 4 -12 1 -19z m73 -83 c0 -2 -6 -8 -13 -14
-10 -8 -14 -7 -14 2 0 8 6 14 14 14 7 0 13 -1 13 -2z m23 -20 c-3 -9 -8 -14
-10 -11 -3 3 -2 9 2 15 9 16 15 13 8 -4z m788 -802 c13 -16 12 -17 -3 -4 -17
13 -22 21 -14 21 2 0 10 -8 17 -17z m-324 -77 c0 -8 -6 -12 -15 -9 -11 5 -11
7 0 14 7 5 13 9 14 9 0 0 1 -6 1 -14z m28 4 c-3 -5 -1 -10 6 -10 7 0 10 -3 6
-6 -9 -9 -28 6 -22 17 4 5 8 9 11 9 3 0 2 -4 -1 -10z m705 -66 c0 -8 -19 -13
-24 -6 -3 5 1 9 9 9 8 0 15 -2 15 -3z"/>
<path d="M2190 2030 c0 -5 5 -10 11 -10 5 0 7 5 4 10 -3 6 -8 10 -11 10 -2 0
-4 -4 -4 -10z"/>
</g>
</svg>
