<?xml version="1.0" standalone="no"?>
<!DOCTYPE svg PUBLIC "-//W3C//DTD SVG 20010904//EN"
 "http://www.w3.org/TR/2001/REC-SVG-20010904/DTD/svg10.dtd">
<svg version="1.0" xmlns="http://www.w3.org/2000/svg"
 width="300.000000pt" height="300.000000pt" viewBox="0 0 300.000000 300.000000"
 preserveAspectRatio="xMidYMid meet">
<metadata>
Created by potrace 1.10, written by Peter Selinger 2001-2011
</metadata>
<g transform="translate(0.000000,300.000000) scale(0.100000,-0.100000)"
fill="#000000" stroke="none">
<path d="M1378 2804 c-477 -83 -1042 -650 -1232 -1238 -55 -167 -86 -347 -65
-372 9 -10 9 -18 2 -22 -29 -20 -7 -201 42 -347 55 -163 120 -267 237 -382
265 -261 617 -349 983 -247 169 48 366 135 504 222 l54 35 66 -36 c120 -63
159 -72 326 -72 133 0 157 3 215 24 155 57 279 161 341 286 29 60 33 78 34
149 0 77 -1 81 -26 90 -23 8 -34 2 -96 -50 -98 -83 -152 -108 -241 -112 -66
-4 -79 -1 -135 26 -34 17 -78 45 -97 62 l-35 31 23 37 c93 151 208 454 237
627 9 55 19 114 22 130 7 42 7 301 -1 355 -26 172 -54 275 -111 396 -42 90
-129 209 -192 261 -123 103 -291 153 -444 131 -62 -9 -88 -8 -117 2 -55 19
-221 27 -294 14z m112 -40 c24 -37 38 -141 26 -187 -6 -24 -9 -25 -38 -16 -43
12 -156 11 -238 -2 -36 -5 -75 -11 -87 -13 -64 -9 -315 -126 -359 -167 -11
-10 -25 -19 -30 -19 -17 0 -186 -153 -250 -226 -129 -146 -237 -335 -320 -555
-41 -110 -54 -156 -89 -324 -16 -73 -18 -45 -5 50 33 229 138 484 295 720 87
130 96 141 202 259 130 145 252 248 413 348 137 85 322 154 447 167 6 0 21
-15 33 -35z m129 -7 c70 -35 99 -71 100 -123 1 -34 -21 -95 -47 -129 l-16 -22
-40 29 c-21 15 -48 28 -59 28 -18 0 -19 5 -14 53 6 60 -6 135 -28 179 -14 30
-14 30 13 24 15 -4 56 -21 91 -39z m342 8 c103 -22 206 -75 281 -146 l63 -60
-65 47 c-78 55 -108 71 -169 90 -54 16 -184 19 -212 4 -16 -9 -27 -4 -63 27
l-44 38 41 6 c72 10 94 9 168 -6z m-234 -22 c61 -39 98 -115 97 -198 -1 -58
-32 -141 -77 -206 -14 -19 -15 -18 -22 18 -3 21 -15 52 -25 69 -18 31 -18 32
12 91 42 85 45 127 16 183 -14 25 -35 51 -49 57 -13 7 -18 13 -10 13 8 0 34
-12 58 -27z m320 -82 c159 -32 273 -133 373 -331 37 -73 26 -80 -13 -10 -58
103 -182 205 -273 226 -16 3 -68 8 -116 11 l-88 5 -30 49 c-16 27 -30 51 -30
54 0 5 79 12 105 8 11 -1 44 -7 72 -12z m-130 -155 c10 -30 17 -80 17 -121 0
-144 -93 -272 -299 -411 -126 -84 -126 -85 -67 -20 69 76 127 176 148 256 10
36 35 91 56 122 72 108 97 216 68 292 -17 47 -11 43 25 -13 19 -30 42 -77 52
-105z m-421 21 c7 -6 -105 -122 -151 -157 -11 -8 -45 -33 -75 -56 -75 -55
-300 -225 -324 -244 -70 -55 -273 -257 -303 -301 -9 -13 -20 -26 -23 -29 -3
-3 -26 -36 -51 -75 -126 -195 -165 -395 -116 -602 13 -54 82 -165 131 -211
113 -107 324 -174 496 -158 36 3 106 7 155 7 50 1 116 5 148 10 48 6 66 4 105
-12 46 -20 132 -83 132 -98 0 -18 -315 -148 -380 -157 -8 -1 -37 -7 -65 -14
-83 -19 -135 -25 -235 -25 -252 0 -429 70 -601 236 -94 92 -133 141 -194 247
l-48 82 6 98 c7 123 56 341 108 482 12 30 24 64 28 75 4 11 29 65 55 120 128
269 327 497 561 642 62 38 238 118 285 128 55 13 60 14 145 22 83 8 198 3 211
-10z m604 -1 c43 -5 134 -53 183 -97 66 -57 121 -143 161 -246 40 -105 53
-159 70 -284 11 -83 11 -101 -4 -159 -24 -92 -90 -260 -139 -359 -34 -66 -140
-248 -158 -270 -10 -12 -70 92 -88 154 -11 36 -10 45 10 85 30 61 92 249 109
335 42 207 41 519 -2 627 -6 15 -22 34 -36 43 -32 21 -51 11 -103 -52 -80 -96
-140 -229 -174 -387 -22 -103 -26 -348 -8 -438 50 -244 71 -312 134 -437 78
-156 176 -264 284 -314 58 -28 76 -31 151 -31 65 1 97 6 135 23 53 23 158 100
188 138 22 27 30 28 52 6 41 -40 -32 -237 -119 -323 -44 -42 -49 -44 -98 -42
-85 3 -175 19 -184 33 -3 5 -9 7 -13 5 -13 -8 -222 100 -282 146 -114 87 -218
197 -298 316 -62 92 -150 274 -166 342 -2 8 -11 35 -20 60 -14 40 -28 94 -41
155 -20 100 -24 128 -29 186 -4 47 -2 69 7 76 7 6 60 36 116 67 57 31 119 69
138 84 64 50 114 148 128 252 8 57 -10 189 -35 255 -10 27 -19 51 -19 52 0 1
10 4 23 6 20 4 42 3 127 -7z m-491 -44 l33 -25 -80 -76 c-106 -101 -171 -152
-372 -289 -284 -194 -477 -399 -569 -604 -29 -65 -61 -202 -61 -263 0 -45 27
-161 46 -198 73 -140 189 -218 394 -267 30 -7 68 -19 84 -25 28 -12 28 -12 5
-17 -46 -10 -194 8 -269 32 -152 49 -257 138 -319 270 -31 68 -35 85 -39 185
-6 163 27 280 123 430 95 148 251 313 431 454 32 25 225 168 244 181 13 8 42
31 65 50 24 19 70 56 103 82 35 28 67 63 78 86 18 36 21 38 44 29 14 -6 40
-22 59 -35z m74 -74 c8 -18 18 -52 22 -74 l6 -41 -104 -97 c-57 -53 -115 -104
-128 -113 -13 -9 -28 -21 -34 -27 -5 -7 -39 -34 -75 -61 -36 -27 -67 -52 -70
-55 -3 -3 -32 -25 -65 -50 -33 -25 -69 -53 -80 -62 -11 -10 -47 -41 -80 -69
-259 -222 -353 -365 -353 -541 0 -76 3 -91 37 -163 35 -74 105 -164 179 -231
l27 -25 -35 7 c-89 17 -224 113 -277 197 -74 117 -82 287 -21 442 33 86 143
249 232 343 73 78 226 203 346 282 58 39 95 64 100 70 3 3 24 18 48 33 23 15
55 38 69 50 102 86 134 113 176 154 26 25 47 50 47 55 0 19 19 6 33 -24z m292
-126 c0 -120 -9 -152 -61 -228 -26 -37 -58 -66 -110 -98 -41 -25 -77 -46 -80
-46 -3 0 -32 -16 -65 -35 l-59 -34 0 37 c0 36 4 40 79 91 43 29 90 64 103 79
13 15 35 36 49 47 36 29 96 123 114 179 9 27 15 68 13 92 -2 29 0 40 7 33 5
-6 10 -58 10 -117z m238 20 c51 -87 50 -425 -2 -646 -19 -81 -61 -207 -92
-274 -16 -35 -29 -73 -29 -85 0 -32 30 -106 67 -165 l34 -53 -20 -26 -20 -25
-30 63 c-41 87 -74 204 -68 237 3 15 19 68 37 117 33 92 53 167 71 265 14 76
5 493 -12 547 -12 38 -11 44 6 63 23 26 35 22 58 -18z m-78 -87 c22 -88 31
-345 16 -440 -25 -167 -102 -425 -126 -425 -23 0 38 -202 95 -315 55 -111 143
-226 191 -250 17 -9 29 -19 26 -22 -3 -3 -26 9 -50 26 -115 79 -243 293 -297
496 -46 174 -54 238 -54 400 0 139 4 174 26 265 25 100 53 180 63 180 2 0 -2
-21 -10 -47 -34 -113 -48 -253 -41 -418 6 -146 24 -287 40 -302 16 -16 16 13
0 89 -26 117 -26 429 -1 545 27 125 90 304 102 291 2 -2 11 -35 20 -73z m-459
-50 c-27 -60 -74 -131 -121 -185 -86 -98 -133 -144 -167 -161 -30 -15 -172
-107 -293 -189 -40 -27 -119 -103 -158 -152 -100 -125 -144 -326 -102 -464 18
-61 18 -64 -1 -39 -46 60 -94 184 -94 245 0 69 42 174 104 260 47 66 206 225
294 295 35 28 69 55 75 61 7 5 43 34 81 63 38 30 76 60 85 67 9 7 63 51 121
98 58 46 125 105 150 130 25 26 46 42 48 36 2 -5 -8 -34 -22 -65z m-96 -305
c0 -30 -5 -42 -17 -47 -10 -4 -34 -19 -53 -35 -31 -25 -35 -26 -42 -11 -17 44
-9 61 49 97 32 20 59 36 60 36 2 0 3 -18 3 -40z m-151 -148 c-13 -9 -36 -29
-51 -45 -28 -29 -28 -29 -29 -6 0 13 -2 40 -5 60 -4 34 -1 38 43 66 l48 29 9
-44 c8 -39 6 -45 -15 -60z m162 46 c2 -60 15 -144 38 -258 16 -75 92 -290 129
-365 89 -177 236 -356 382 -464 152 -114 346 -195 459 -192 35 0 42 -2 32 -12
-17 -17 -179 -11 -261 10 -290 72 -547 292 -707 603 -26 52 -54 111 -61 130
-38 100 -73 208 -76 235 -2 17 -11 58 -20 92 -9 34 -19 88 -22 120 l-6 59 48
37 c27 20 52 37 57 37 4 0 8 -15 8 -32z m-264 -70 c1 -54 -3 -67 -31 -104 -17
-24 -34 -43 -37 -44 -11 0 -22 154 -12 157 5 2 25 14 44 28 18 13 34 24 35 25
0 0 1 -28 1 -62z m-78 -253 c7 -33 14 -69 17 -81 5 -28 37 -123 68 -207 30
-84 113 -234 166 -305 22 -29 40 -56 40 -61 0 -5 -33 -19 -72 -32 -61 -20 -93
-24 -199 -24 -125 0 -125 0 -201 38 -78 38 -152 106 -185 171 -42 82 -56 232
-29 331 35 133 138 266 290 374 l81 57 6 -100 c4 -56 12 -128 18 -161z m231
105 c12 -58 23 -116 26 -130 25 -131 156 -416 244 -531 183 -240 393 -381 645
-434 l70 -14 -85 5 c-116 6 -198 29 -305 84 -333 170 -594 536 -698 980 -25
102 -25 101 23 150 53 53 45 63 80 -110z m1024 8 c-21 -147 -126 -441 -211
-591 -18 -33 -33 -63 -33 -68 0 -5 -4 -9 -10 -9 -5 0 -10 4 -10 9 0 4 -16 30
-37 56 l-36 48 18 34 18 33 22 -20 c12 -11 27 -20 33 -20 25 0 153 281 213
468 18 56 34 102 36 102 2 0 0 -19 -3 -42z m-1160 -15 c10 -62 11 -69 27 -123
16 -56 15 -52 22 -70 3 -8 14 -40 23 -70 25 -78 113 -253 169 -335 189 -277
457 -480 677 -512 29 -4 111 -8 183 -7 l129 1 -39 -17 c-88 -37 -255 -50 -369
-29 -117 21 -303 118 -400 208 -60 56 -148 147 -184 190 -96 114 -199 298
-250 446 -33 94 -72 238 -72 263 0 16 60 101 71 102 4 0 10 -21 13 -47z m1002
-294 c-81 -175 -90 -189 -107 -172 -12 12 6 54 46 108 12 17 46 76 75 133 29
56 55 101 57 98 2 -2 -30 -77 -71 -167z m-737 -546 c40 -45 55 -69 46 -71 -8
-2 -30 13 -50 32 -20 20 -57 47 -83 60 -34 19 -41 25 -25 26 12 0 25 5 28 10
11 18 23 10 84 -57z m-1196 -154 c68 -47 178 -107 208 -113 8 -1 34 -8 59 -15
25 -7 54 -16 65 -19 11 -2 85 -7 165 -9 142 -4 176 0 364 42 60 14 273 100
333 135 l32 19 25 -41 c14 -23 23 -45 21 -49 -5 -8 -274 -127 -302 -134 -10
-3 -70 -19 -133 -36 -104 -29 -129 -32 -265 -33 -118 -1 -165 3 -220 18 -82
22 -244 95 -264 119 -7 9 -19 17 -25 17 -31 0 -276 270 -276 305 0 3 32 -31
71 -75 39 -44 103 -103 142 -131z m-64 -26 c121 -121 243 -190 413 -233 108
-28 310 -28 439 1 163 36 241 62 378 126 63 29 116 52 117 50 2 -2 7 -24 10
-50 6 -43 5 -47 -17 -56 -13 -5 -53 -23 -89 -40 -73 -36 -277 -103 -363 -121
-181 -37 -434 -1 -607 84 -164 82 -332 237 -412 383 -31 55 -19 48 20 -13 21
-32 71 -91 111 -131z m1424 33 c4 4 7 5 7 2 0 -3 -15 -15 -33 -26 l-33 -19
-22 45 c-31 62 -11 75 39 26 19 -19 38 -31 42 -28z m97 -88 c0 -5 -8 -12 -17
-16 -10 -4 -40 -20 -66 -36 -26 -16 -49 -27 -51 -25 -2 2 -6 25 -9 50 -6 44
-5 46 30 66 l36 21 39 -25 c21 -14 38 -30 38 -35z"/>
</g>
</svg>
