<?xml version="1.0" standalone="no"?>
<!DOCTYPE svg PUBLIC "-//W3C//DTD SVG 20010904//EN"
 "http://www.w3.org/TR/2001/REC-SVG-20010904/DTD/svg10.dtd">
<svg version="1.0" xmlns="http://www.w3.org/2000/svg"
 width="300.000000pt" height="300.000000pt" viewBox="0 0 300.000000 300.000000"
 preserveAspectRatio="xMidYMid meet">
<metadata>
Created by potrace 1.10, written by Peter Selinger 2001-2011
</metadata>
<g transform="translate(0.000000,300.000000) scale(0.100000,-0.100000)"
fill="#000000" stroke="none">
<path d="M1350 2819 c-67 -17 -115 -33 -125 -40 -5 -4 -40 -18 -76 -32 -146
-55 -323 -181 -499 -357 -146 -146 -201 -212 -281 -334 -76 -118 -95 -151
-150 -266 -120 -250 -166 -455 -156 -699 6 -138 8 -152 54 -299 73 -235 288
-463 533 -566 169 -71 230 -83 411 -83 84 0 165 3 179 7 14 4 50 13 80 20 30
7 60 16 65 19 6 4 50 20 100 37 91 29 309 134 378 181 l37 26 73 -37 c102 -51
178 -68 315 -68 129 -1 157 3 252 37 88 31 139 62 204 123 98 90 153 198 163
314 5 57 3 72 -12 88 -31 34 -69 25 -143 -34 -102 -82 -164 -110 -242 -110
-55 -1 -75 5 -126 32 -34 18 -71 47 -83 63 l-22 29 25 33 c61 80 184 394 220
562 51 241 45 584 -14 764 -32 96 -95 237 -127 284 -57 84 -175 193 -249 230
-110 55 -181 70 -305 64 -62 -2 -113 0 -124 6 -23 13 -309 18 -355 6z m316
-49 c107 -37 186 -124 230 -252 51 -152 19 -287 -101 -416 -133 -144 -364
-300 -575 -390 -53 -22 -243 -172 -268 -211 -9 -14 -31 -45 -49 -69 -18 -24
-44 -80 -59 -127 -23 -75 -26 -97 -22 -187 7 -140 30 -199 117 -287 105 -107
191 -137 375 -128 81 4 127 11 170 27 57 22 59 22 68 4 14 -28 258 -263 280
-270 11 -3 17 -11 15 -17 -2 -6 -64 -43 -139 -82 -148 -77 -407 -171 -499
-180 -29 -3 -73 -8 -95 -11 -69 -8 -253 15 -334 43 -184 63 -294 129 -415 251
-104 105 -173 221 -221 370 -35 108 -39 129 -44 267 -4 130 -2 165 17 259 12
60 29 132 38 160 9 28 20 67 26 86 35 114 219 441 312 553 88 108 196 222 267
284 84 72 174 143 184 143 3 0 30 18 61 39 65 46 255 129 335 147 91 20 261
17 326 -6z m334 -12 c98 -30 217 -103 276 -170 83 -94 155 -233 204 -393 30
-97 54 -368 41 -472 -5 -49 -13 -115 -16 -148 -8 -76 -26 -147 -76 -298 -36
-109 -135 -331 -162 -365 -21 -26 -114 142 -173 312 l-37 107 18 57 c10 31 26
82 36 112 52 162 63 239 64 430 0 198 -1 217 -21 298 -15 62 -21 72 -39 72
-21 0 -41 -35 -76 -131 -85 -232 -93 -504 -25 -825 32 -151 94 -297 182 -432
94 -143 185 -201 314 -202 92 0 163 30 257 109 102 85 129 63 92 -75 -57 -220
-265 -368 -534 -381 -91 -5 -125 -2 -191 15 -101 25 -253 100 -319 157 -97 83
-255 244 -255 260 0 3 -21 32 -47 66 -90 119 -195 356 -234 526 -11 53 -15 79
-24 203 l-7 85 69 32 c260 124 533 347 602 492 46 97 57 182 37 271 -22 99
-66 186 -122 243 -26 26 -52 48 -58 48 -6 1 7 5 29 9 48 9 146 2 195 -12z
m130 -600 c14 -99 15 -341 0 -418 -26 -142 -79 -330 -92 -330 -5 0 -8 8 -8 18
0 9 -7 67 -15 127 -19 141 -19 229 1 362 16 109 78 323 93 323 5 0 14 -37 21
-82z m-913 -555 c6 -99 24 -226 39 -283 44 -156 146 -376 221 -473 24 -33 43
-60 41 -62 -2 -1 -30 -12 -63 -23 -121 -41 -274 -38 -367 8 -80 39 -97 51
-134 93 -156 179 -124 467 73 659 52 51 176 147 182 141 2 -1 6 -29 8 -60z"/>
</g>
</svg>
